<svg width="143" height="60" viewBox="0 0 143 60" fill="none" xmlns="http://www.w3.org/2000/svg">
<g clip-path="url(#clip0_69_118)">
<rect x="41.5" width="60" height="60" rx="30" fill="#007D90"/>
<mask id="mask0_69_118" style="mask-type:alpha" maskUnits="userSpaceOnUse" x="51" y="10" width="41" height="40">
<rect x="51.5" y="10" width="40" height="40" fill="#D9D9D9"/>
</mask>
<g mask="url(#mask0_69_118)">
<path d="M84.5996 47.9854L79.538 42.9042C78.8702 43.3219 78.1624 43.6822 77.4146 43.985C76.6666 44.2878 75.8892 44.5299 75.0825 44.7113V41.125C75.4184 41.0061 75.7488 40.8871 76.0738 40.7679C76.3991 40.649 76.7084 40.5057 77.0017 40.3379L71.7492 35.0654V44.1404L62.9475 35.3388H56.0817V24.6613H61.4346L53.4946 16.6612L55.9275 14.2283L87.0425 45.5425L84.5996 47.9854ZM84.5255 38.1096L81.9992 35.5633C82.4714 34.7089 82.8256 33.8111 83.0617 32.87C83.2978 31.9289 83.4159 30.9583 83.4159 29.9583C83.4159 27.3539 82.6487 25.0256 81.1142 22.9733C79.5798 20.9211 77.5692 19.5272 75.0825 18.7917V15.2054C78.5667 15.9899 81.4088 17.7529 83.6088 20.4946C85.8085 23.2362 86.9084 26.3908 86.9084 29.9583C86.9084 31.4572 86.7021 32.8938 86.2896 34.2679C85.8769 35.6424 85.2888 36.9229 84.5255 38.1096ZM78.9521 32.5063L75.0825 28.6167V23.1304C76.4145 23.7549 77.4685 24.6865 78.2446 25.9254C79.0205 27.164 79.4084 28.5222 79.4084 30C79.4084 30.4367 79.3705 30.8647 79.2946 31.2842C79.2185 31.7033 79.1044 32.1107 78.9521 32.5063ZM71.7492 25.2538L67.0771 20.5317L71.7492 15.8596V25.2538Z" fill="white"/>
</g>
</g>
<defs>
<clipPath id="clip0_69_118">
<rect x="41.5" width="60" height="60" rx="30" fill="white"/>
</clipPath>
</defs>
</svg>
