<?xml version="1.0" encoding="UTF-8"?>
<svg id="Layer_1" xmlns="http://www.w3.org/2000/svg" version="1.1" viewBox="0 0 2806.8 2769.8">
  <!-- Generator: Adobe Illustrator 29.4.0, SVG Export Plug-In . SVG Version: 2.1.0 Build 152)  -->
  <defs>
    <style>
      .st0 {
        fill: #15919e;
      }

      .st1 {
        fill: #2c77b1;
      }

      .st2 {
        fill: #fbb395;
      }

      .st3 {
        fill: #fbbd59;
      }

      .st4 {
        fill: #97e1d1;
      }

      .st5 {
        fill: #74c464;
      }

      .st6 {
        fill: #df6a07;
      }

      .st7 {
        fill: #17707a;
      }

      .st8 {
        fill: #c3cbcf;
      }

      .st9 {
        fill: #0eb9ac;
      }

      .st10 {
        fill: #09446e;
      }

      .st11 {
        fill: #f59119;
      }

      .st12 {
        fill: #088069;
      }

      .st13 {
        fill: #dd3b47;
      }

      .st14 {
        fill: #4edfcf;
      }

      .st15 {
        fill: #4a9f4d;
      }

      .st16 {
        fill: #619884;
      }

      .st17 {
        fill: #318839;
      }

      .st18 {
        fill: #f99b79;
      }

      .st19 {
        fill: #c6c765;
      }

      .st20 {
        fill: #fefefe;
      }
    </style>
  </defs>
  <path class="st3" d="M734.6,201.7c7.5-.3,14.4-.5,21.5,2.3,10.7,4.1,19.3,12.5,23.6,23.1,4.7,11.6,4.4,24.7-1,36-6.2,13-16.3,18.7-29.3,23.1-9.3,1.1-17.5.6-26-3.6-10.4-5.1-18.3-14.4-21.7-25.5-3.6-11.5-2.4-23.9,3.3-34.4,6.6-12,16.8-17.2,29.5-21h.1Z"/>
  <path class="st3" d="M1596.8,495.9c9.2.2,17.1,1,25.2,5.5,10.5,5.8,18.2,15.6,21.2,27.1,3,11.1,1.6,23.8-4.3,33.7-7.6,12.6-18.5,17.1-32.1,20.5-9.8,0-19.2-1.2-27.9-6-10.5-5.8-18.4-15.4-21.3-27.1-2.8-11.2-.8-23.1,5.4-32.9,7.8-12.2,20-18,33.8-20.8h0Z"/>
  <path class="st3" d="M682,590.4c12.1-1,23-.4,34.1,5,13.4,6.6,23.5,18.8,28.2,32.8,5,14.6,3.4,31.4-3.7,45.1-8.2,15.9-21.2,23.4-37.5,28.8-11.5.9-22,.2-32.6-4.6-13.6-6.1-24.2-17.3-29.4-31.2-5.5-14.9-4.7-31.4,2.3-45.7,8.2-16.6,21.5-25,38.6-30.3h0v.1Z"/>
  <path class="st13" d="M295.7,1552.9c-24.6-19.1-52.8-36-74.5-58.5-12.1-12.6-23.8-30.1-23-48.2.4-8.1,3.2-15.6,9.4-21.1,8-7.1,19.2-9.5,29.6-9,33.5,1.5,59,27.8,80.4,50.6-7.7,28.3-12.9,58.4-21.9,86.2h0Z"/>
  <path class="st3" d="M204.4,813.9c13.2-.9,25.7.4,37.5,6.7,15.4,8.1,26.1,23,30.8,39.5,5,18,3.3,37.7-6.2,53.9-10.4,17.9-25.9,25.5-45.2,30.4-15.1-.2-28.6-1.5-42-9.5-15.2-9-26-24.4-30.3-41.5-4.2-16.7-1.7-35.2,7.5-49.9,11.2-17.7,28.3-25.4,47.9-29.8h0v.2h0Z"/>
  <path class="st2" d="M1723,311.5c15.6-.5,30.1,1.1,43.7,9.8,15.7,10,26.2,27.1,29.4,45.3,3.4,18.8-1.2,38.2-12.7,53.6-12.4,16.6-28.7,24-48.6,27-15.9,1.2-32.3-2.9-45.4-12.2-15.3-11-25.4-27.8-27.8-46.5-2.5-17.9,2.2-36.1,13.2-50.5,12.1-15.9,28.8-23.7,48.1-26.4h.1v-.1Z"/>
  <path class="st2" d="M1637.8,123.9c14.8-.9,27.7-.4,41.4,6.2,17.3,8.3,30.5,23.4,36.3,41.7,5.5,17.7,3.3,36.9-5.9,52.9-10.5,18.5-27.2,28.2-47.2,33.5-15.3,1.7-29.9.5-43.8-6.5-16-8-28.2-22.2-33.7-39.2-6.1-17.8-4.3-37.4,4.9-53.9,10.7-19.4,27.4-29.2,48.1-34.9h0v.2h-.1Z"/>
  <path class="st13" d="M330.7,1425.4c-49-50.5-91.6-122.5-119.1-187.1-13.8-32.5-27.6-77.4-12.4-111.9,3.2-7.2,10.3-15,17.9-17.6,8-2.8,18.4.4,25.5,4.3,34.7,19.5,51.4,77.1,58.5,113.2,3.5,18,5,37.1,9.9,54.6,9.2,33.1,23.9,50.1,53.5,67.2-19.4,22.9-26.2,48.8-33.7,77.2h0l-.1.1Z"/>
  <path class="st3" d="M579.9,328c22.1-1.4,43.1,1.5,62.1,13.6,20.1,12.7,34.1,34.4,39.4,57.3,5.7,25.2,1.1,51.7-12.8,73.5-15.2,24.2-37.2,35.5-64.4,41.7-23.7,2.9-47.5-1.8-67.2-15.7-20.8-14.5-34.8-37-38.7-62.1-4.2-25.2,2.1-51.1,17.3-71.7,16.1-21.9,38-32.5,64.3-36.6h0Z"/>
  <path class="st5" d="M204.9,2309.6c-50.7-62.3-89-118.5-116.9-194.7-20-54.6-32.8-116.7-30.7-174.9.4-9.8.6-24.1,5.3-32.8,2-3.7,3.5-4.4,7.3-5.6,36.3,7.4,115.2,179.8,137.1,217.2,22.3,37.9,46.9,73.6,73,109-14.1,13.2-28.1,26.7-40.8,41.3l-3.6,3.6c-10.8,12.1-20.9,24.2-30.9,37h.2v-.1Z"/>
  <path class="st15" d="M235.8,2272.6c-10.8-18.3-26-35.4-38.5-52.7-39.4-54.7-69.9-111.3-90.5-175.6-3.6-11.1-10.4-29.4-7.8-41.1.5-2.3.5-1.6,2.7-3,7.2,10.7,12.6,43.5,17.6,57.8,8.7,24.8,19.8,50,31.5,73.5,15.9,32,36.7,62.2,57.3,91.4,10.3,14.7,23.6,30,31.3,46.2l-3.6,3.6h0v-.1Z"/>
  <path class="st11" d="M2606.1,2139.2c1.6-41.6-1.6-81.6-8.6-122.5-5.5-32.4-13-64-21.6-95.8-5-18.5-12.2-38.5-14.9-57.4-.7-5.1-.7-8.7,1.4-13.3,3.6-2.4,3.8-2.3,8.1-2.1,24,12.9,49.6,85.9,58,113.9,2.2,7.5,4.3,15.1,6.2,22.7,11.8-26.3,32-63.3,60.4-75,4.7-1.9,12-3.5,16.9-1.3,3.2,1.5,5.4,4,6.2,7.4,1.1,4.7-.3,10.4-2.4,14.6-4.7,9.3-12.7,17.9-18.9,26.2-13.7,18.2-26.5,37.6-35,58.9-11.9,29.6-10,58.2-9.5,89.5,16.6-22.6,34.9-45.8,64.4-51,7.1-1.3,18.1-1.6,24.2,2.8,3.1,2.2,4.1,4.5,4.7,8.1-2.9,13-17.1,20.8-27.6,27.4-10.1,6.4-21.3,12.4-30.3,20.2-36.2,31.7-53.2,85.8-68.9,130.2,24.1-16.6,51.1-25.7,80.6-21.2,6.7,1,14.7,5.5,18.3,11.2,1.9,3,2,5.3,1.6,8.7-3.6,7.1-8.1,8.7-15.4,11-13.5,4.2-28,5.3-41.6,9.3-47.8,14.2-74.3,47.5-105.8,83.9-16.9-6-34.3-11-51.5-16.3,7.1-13.8,15.5-27.6,21-42.1-4.1-21.5-25.5-92-13.4-108.6,2.1-2.8,4.9-4.4,8.4-4.5,3.8,0,5.6.3,8.6,2.8,11.5,9.7,21.9,74.9,24.6,92.4,14.2-22.1,36-55.1,30.5-82.2-2.6-12.6-9.1-24.2-16.8-34.3-9.1-11.9-44.5-40.9-36.4-56.6,1.8-3.5,4.8-5.4,8.5-6.2,10-2.2,23.7,6,31.2,11.7,13.5,10.1,24,24.3,34.6,37.3h0l.2.2h0Z"/>
  <path class="st3" d="M346.4,499.1c28.2-2.8,58.5,4.9,82.2,20.3,28.9,18.7,49.1,48.2,56,82,7.1,35.1-.4,71.5-20.8,100.9-21.3,31.3-51.7,48.6-88.5,55.4-31.1,3.9-63.2-3-89-21.3-28.4-20.2-47.6-50.8-53.5-85.2-5.6-34.6,2-70.2,22.8-98.6,23-31.3,53-47.7,90.8-53.6h0v.1Z"/>
  <path class="st15" d="M294.8,2214.5c-24.8-44.8-50.3-89.5-72-135.9-48.8-104.3-83.9-223.1-92.9-338.2-2.6-32.6-5.4-68.6-.8-101,1.1-8.1,3.8-20.1,11.4-24.7,3-1.8,6.5-2,9.8-.8,32.1,11.6,111.6,183.1,128.8,222.6,6.3,15.2,6.4,38.9,8.6,55.4,2.4,18.9,5.2,37.9,8.9,56.5,14.5,74.3,33.4,147.6,56.6,219.6-7.8,6-15.8,11.8-23.4,18l-3.4,2.1c-10.2,8.9-21.7,16.8-31.3,26.2h0l-.3.2h0Z"/>
  <path class="st13" d="M2235.9,1882.5c-32.4,258.8,32.7,321.8-29.9,419.1-93.7,145.8-344.8,167.7-516.5,122.1-221.1-58.7-448.3-265.8-449.4-541.1-1.2-308.6,282.1-569.4,476-546.7,94.3,11,224.6,95.8,283.7,161.7,24.8,27.7,59.3,76.8,115.4,114.5,8.8,5.9,29.6,19.2,52.7,42.8,0,0,26.7,27.2,44.7,58.7,36.7,64,25.6,150,23.2,168.9h.1Z"/>
  <path class="st17" d="M326.1,2188.2c-.7-.3-1.4-.6-2-1-7.4-5.8-19.6-34.4-24.2-43.9-53.9-112.2-98.3-249.3-117.9-372.7-1.4-9-6.3-30.5-.8-38.2,5.1,4.8,7.2,30.5,8.8,38.3,9,45.9,19.6,90.9,31.4,136.1,18.9,72.4,44.3,141.7,74.5,210.2,10.3,23.4,24.2,45.4,33.6,69.1l-3.4,2.1h0Z"/>
  <path class="st11" d="M2478.2,1706.6c-.4-27.4,1.3-55.1,1.5-82.5,0-14.5-1.8-29.7-.6-44.1.3-4.2,1.1-8.8,3.5-12.3,2.3-3.4,6.1-5,10-5.3,3.6-.2,6.6,1.7,8.9,4.3,14.8,16.3,11.2,79.7,11.1,101.2-4,22.7-5.5,45.9-8,68.8-3.7,33.3-8.1,66.6-8.8,100.1.2-.4.4-.7.6-1.1,12.3-21.1,36.8-92.1,59.5-98,2.2-.6,3.4.2,5.4.9,3.8,4.2,6,8.3,5.6,14.2-1.7,26.7-65.5,142.2-79.6,178.6-17.7,45.7-29.4,92.5-41.5,139.8,12.9-16.6,27.1-31.9,40.1-48.4,10.9-13.8,20.7-29.8,32.9-42.3,3.3-3.4,9-8.8,14-9.1,3.5-.2,6,1.2,8.1,3.9,2.9,3.5,2.7,8.6,1.7,12.8-7,29.6-54.7,81.5-77.4,104.5-9.9,10-24.9,21.5-30.9,34.1-11.5,24.2-19.8,126.4-19,157.9,7.6-19.5,14.6-39.1,21.1-59,9.1-28.7,26.3-108.7,54.9-121.8,3.7-1.7,7.7-2,11.6-.5,3.8,1.4,6.6,4,8.2,7.7,6,13.9-43.8,100.2-39.8,112.4l1.9-.7c6.5-2.2,11.1-3.7,17.5-.3,2.9,1.5,4.8,3.9,5.7,7.1,2.2,7.8-2.9,16.6-7,22.9-13.6,21.6-29.4,41.8-42.9,63.6-22.8-2.8-45.8-4.3-68.8-4.5l-4.5-1.1c-2.9-5.2-1.6-11.6-2-17.4-1.4-21-3-41.9-2.5-63s2.9-42.3,1.6-63.5c-3.1-51.2-24.4-99.6-21.1-151.6,3.7-5.9,7.1-10.4,12.9-14.3-2.3-24.1-6.5-48.4-12.1-71.9,30.9-44.4,64.5-104,88.5-152.4-8.8-36-20.1-71-31.8-106.2-2.7-8.7-6.8-19.3-5.5-28.5.8-5.7,3.6-8.5,8-12,8.9,1.3,12.5,3.6,17.8,10.9,18.8,25.9,22.2,60.1,34.2,89,6.8-7.1,11.7-14.6,16.7-23h.3v.1Z"/>
  <path class="st20" d="M2461.5,1729.7c6.8-7.1,11.7-14.6,16.7-23,0,23.1.4,46.3-2.4,69.2-3.7-15.8-7.1-31.6-14.3-46.2h0Z"/>
  <path class="st20" d="M2438.8,1776.4c9.4,61.9,9.4,132.5-12.8,192-1.3-13.9-2.9-56.8-13.1-65.9-2.6-2.3-4.7-3-8.1-3.3-4.3,2.3-6.1,4.6-7.5,9.4-6.5,21.5,2.5,68.2,6.5,90.9,1.7,9.7,4.7,20.8,4.4,30.6-.8,22.2-13.1,49-20.1,70.1-3.8-28.8-4.6-78.6-25.6-99.4-2.3-24.1-6.5-48.4-12.1-71.9,30.9-44.4,64.5-104,88.5-152.4h0l-.1-.1Z"/>
  <path class="st5" d="M374.9,1340.9c30,27.7,38.1,137.8,43.8,180.1,28.1,15,46.7,33.1,63.6,60,5.5,8.7,10.5,18.5,16.8,26.6l5.3,3.3c20.2,23.5,31.5,48.4,42.5,77.2,2.7,23.5,11.6,46.3,15.7,69.7,4,22.3,3.9,46.9,9.5,68.6,3.8,28.8,4,58.9,4.2,87.9.3,63.2-2.8,124-14.2,186.3-49.1-.7-94.5,6-139.8,25.7l-6.7,2.9-1.8,1.7c-20.9,11.5-41.3,23.6-60.9,37.2-23.2-72-42.1-145.4-56.6-219.6-3.6-18.7-6.4-37.6-8.9-56.5-2.1-16.5-2.2-40.3-8.6-55.4,1.8-29-2.1-58.6-1.7-87.8,1-66.5,7.5-130.3,18.4-195.8,9.1-27.8,14.2-57.9,21.9-86.2,5.3-13.3,8.9-27.6,13.1-41.3,7.5-28.5,14.3-54.3,33.7-77.2l10.6-7.3h.1v-.1Z"/>
  <path class="st19" d="M441.5,1703.9c7,2.3,14.4,4.3,21.3,7l-.4,26c-5.5-5.6-10.2-9.8-17.9-11.7-.3-7-1.9-14.2-3-21.2h0v-.1Z"/>
  <path class="st20" d="M444.5,1725.1c7.7,2,12.5,6.2,17.9,11.7l.3,1.9c5,26.6,5,61.7,1.3,88.6-.8,5.4-3.2,10.2-4,15.7l-.2,1.3-1.1-.7c-5.7-39.4-10-78.9-14.2-118.5h0Z"/>
  <path class="st15" d="M415.7,2129.2c-2.7-25.3-11.3-51.1-17.5-75.8-8.6-35.1-16-70.6-22.1-106.2-26.3-156.8-35-321-12.7-478.8,2.3-16.3,6.2-52.5,13.8-66l1.8-.3-1,3.4h2.7l-1.6.6c-1.1,28.6-7.2,57.2-10.5,85.7-5.1,47.3-8.3,94.9-9.7,142.4-2.4,118.4,10.6,238.6,33.1,354.8,8.9,46,22.6,91.2,30.4,137.4l-6.7,2.9h0v-.1Z"/>
  <path class="st20" d="M418.7,1520.9c28.1,15,46.7,33.1,63.6,60,5.5,8.7,10.5,18.5,16.8,26.6-7,.4-11,1.4-15.9,6.6-19.2,20.3-18.2,70.2-20.5,96.8-6.8-2.7-14.3-4.7-21.3-7-7.6-16.9-20.6-154.5-22.8-182.9h0l.1-.1Z"/>
  <path class="st13" d="M566.5,1205.7c31-70-19.7-162.3-39-230.1-9.4-33-14.8-67.9-14.2-102.2.3-17.7,1.4-37.2,9-53.5,5.6-12,14.9-21.2,27.5-25.6,6.7-2.4,13.4-2.2,19.7,1.2,53.6,29.3,49.4,237.7,67.1,297.8,3.2,10.8,3.8,22.8,8.1,33.2,2.4,5.7,6.4,12.1,12.8,13.9,4.4,1.2,9-.2,12.5-2.9,21.7-16.5,16.1-70.6,20.3-95.5,3.3-19.7,11.3-43.2,28.6-54.7,6.2-4.1,13.4-5.8,20.7-4.3,10.2,2.1,18.3,9.4,23.6,18.1,9.2,15.3,10.7,35.1,9.6,52.6-3.5,52.1-33.2,97.6-67.4,135.2-16.6,18.3-34.3,35.7-47.6,56.7-20.5,32.3-31.2,68.8-39.7,105.8-6.2,26.9-26.8,114.6-11.1,135.6,2.4,3.2,4.9,4.2,8.8,4.7,6.8.7,15.7-2.7,21.5-5.8,61.1-32.7,62.9-168.4,103.3-198.9,6.5-5,14.7-7.1,22.7-5.8,6.2,1,10.5,4.6,14.1,9.6,15.5,21.8,3.8,65.2.4,90,43.8-32.2,81.4-86.4,102.1-136.2,8.6-20.7,14.3-42,20.1-63.6,8.4-16.5,17.9-36,37.1-41.9,7.6-2.4,15.8-1.7,22.8,2,11.2,6,17.7,18.3,20.7,30.2,11.8,46.3-12.3,89.7-35.8,127.5-30.2,39.1-62,76.1-99.2,108.7-71,62.1-172.5,111.8-205.6,205.4-5.3,15-9.7,32.4-7.8,48.4,1.6,13,7,22.8,16.3,31.8,8.8,1.7,17.1,2.8,26.1,3.1-10.7,35-17.7,72.2-29.8,106.7-24.8,6.8-48.8,14.1-72.6,23.9-5.6-21.8-5.5-46.3-9.5-68.6-4.2-23.3-13-46.2-15.7-69.7-11-28.8-22.3-53.7-42.5-77.2l-5.3-3.3c-6.3-8.1-11.4-17.8-16.8-26.6-16.9-26.9-35.6-45-63.6-60-5.8-42.3-13.8-152.4-43.8-180.1.6-24,4.5-46.8,16.5-67.9,4.8-8.4,11-16.1,20.8-18.5,7.5-1.8,15.6.2,21.8,4.6,32.8,22.9,30.8,115.8,37.2,153.7,7.7,45.3,20.3,69.6,57.7,96.4,2.9-3.3,5.6-6.7,7.8-10.6,14.3-24.8,12.9-59.9,14.5-87.8,4-69.3,8.2-115.2-47.1-165.5-19.6-17.8-38.5-34.9-54.1-56.6-11.3-15.8-21.8-33.3-26.8-52.2-4.8-17.9-5-42.5,5.1-58.9,4-6.6,10.1-11.5,17.8-12.9,28.2-5.1,39.4,29.4,48.3,49.1,4.9,10.9,10.1,21.7,16.5,31.8,13.6,21.7,33.3,43.7,53.9,58.9.5.4,1.1.8,1.7,1.2h0v-.4h-.1Z"/>
  <path class="st20" d="M504.5,1610.8c18.1,7.6,31.4,19.6,38.8,38.1,5,12.6,6,25.8,3.8,39.1-11-28.8-22.3-53.7-42.5-77.2h-.1Z"/>
  <path class="st13" d="M914.1,1553.3c12.3-14.7,22-29.6,27.3-48.3,6.9-24.2-1.7-82.9,33.2-86,6.1-.5,11.9,1.5,16.6,5.5,7.6,6.6,10.7,16.3,10.9,26,.7,44.4-25.3,106-53.8,139.9-17.4,20.6-38.4,36.4-46.8,63.1,13.5,0,30.1-2.2,40.5,8.2,4.3,4.3,8.2,10.1,7.9,16.4-.5,8.9-9.1,16.1-15.7,20.9-24.3,17.8-59.7,20.6-88,29-15.5,4.7-30.9,12.1-45.2,19.7.2-22.9-1.2-45.7-2.7-68.6,25.6-16.6,62.7-42.6,69-74.7,6.7-33.8-37.8-101.4-7.5-119.5,4.2-2.5,9.6-2.5,14.1-1,11.2,3.7,18.5,14.9,23.3,25.1,6.7,14.3,10.6,29.8,17,44.3h-.1Z"/>
  <path class="st15" d="M743.9,1538.2c12.2,2.7,17.9,7.9,24.6,18.4,16.8,26.4,30.3,90.5,29.7,122.6,1.5,22.8,2.9,45.7,2.7,68.6-.7,12.6-1.1,25.2-2.5,37.7-4.5,54.4-12.3,109.4-28.6,161.7-17.4,58.8-44.9,140.2-83.9,188-26-14.8-53.6-23.7-82.7-29.6l-7-1.2c-10.4-1.3-20.6-2.2-31.1-2.9l-2.9-1.1c11.5-62.3,14.5-123.1,14.2-186.3-.2-29.1-.4-59.1-4.2-87.9,23.9-9.8,47.8-17.1,72.6-23.9,12-34.5,19.1-71.6,29.8-106.7,4.8-31,39.7-136.8,63.1-155.6l6.1-2h0v.2h.1Z"/>
  <path class="st17" d="M737.7,1540.2l6.1-2-.2,2c-2.7,39.2.8,78.5-2.8,117.9-11.2,121.2-46.2,244.8-94.2,356.5-13.3,31-30.2,60.2-43.6,91.1l-7-1.2c28.9-48.3,52.9-112.3,71-165.8,33.8-99.8,61.8-194.5,69-300.7,2.2-32.5,1.7-65.2,1.5-97.8h.2Z"/>
  <path class="st15" d="M674.7,1695.8c4.8-31,39.7-136.8,63.1-155.6,0,32.6.7,65.3-1.5,97.8-7.2,106.2-35.3,200.9-69,300.7-18.1,53.6-42.2,117.5-71,165.8-10.4-1.3-20.6-2.2-31.1-2.9l-2.9-1.1c11.5-62.3,14.5-123.1,14.2-186.3-.2-29.1-.4-59.1-4.2-87.9,23.9-9.8,47.8-17.1,72.6-23.9,12-34.5,19.1-71.6,29.8-106.7h0v.1Z"/>
  <path class="st14" d="M572.3,1826.3c23.9-9.8,47.8-17.1,72.6-23.9-14.6,68.9-33.4,137.3-52.3,205.2-8.6,30.8-15.6,64.4-27.5,94.1l-2.9-1.1c11.5-62.3,14.5-123.1,14.2-186.3-.2-29.1-.4-59.1-4.2-87.9h.1v-.1Z"/>
  <path class="st12" d="M2226,1005.3c18.5-17.5,39.6-9.3,61.7-16.1,39-12,55.5-61.1,56.7-97.9.7-21.7-3.6-42.8-5.9-64.2-4.7-44.1,9.8-82.4,41.9-112.8,18.7-17.8,46.8-37.7,73.7-37.2,11,.2,20.6,4.5,28.1,12.6,15.3,16.8,18.5,42.1,16.9,64-4.4,62.1-48.6,102.4,1.5,161.4,35.9,42.3,60.1,58.1,55.2,119.4-5.6,70.1-54.1,132.6-106,176.4-21.1,17.8-60.8,38-62.9,68.6-1,14.7,5.3,28.6,10.8,41.8,22.3,53.1,29.1,85.7-17.4,128.4-54.9,50.4-113.9,70.1-118,155.7-1.1,23.3,1.3,46.4,1.9,69.6,1.5,5,.8,11.8.9,17,17.9-4.8,36.2-9.1,52.3-18.7,64.3-38.5,14.7-118.5,61.8-179.8,42.3-55,110.1-36.8,134.4-73.2,23.1-34.6,1.5-85.7,32.9-126.1,21.6-27.7,59.7-40.1,93.3-44.5,13.1-1.7,34.4-3.7,45.1,5.4,18.6,15.9-14.4,55-23.1,70.2-6.5,11.4-12.1,23.6-15.2,36.3-13.9,57.9,32.3,72.2,34.5,117.7,2.6,51.4-48.4,75.3-80.4,104.3-29.9,27.1-60.9,54.6-88.1,84.4.1-21.5,3.7-85-11.1-101.2-2.3-2.6-5.3-4.6-8.9-4.3-4,.3-7.7,1.9-10,5.3-2.4,3.5-3.1,8.2-3.5,12.3-1.2,14.4.7,29.6.6,44.1-.2,27.5-1.8,55.1-1.5,82.5-5.1,8.4-9.9,15.9-16.7,23-12-28.9-15.4-63.1-34.2-89-5.3-7.3-8.9-9.6-17.8-10.9-4.4,3.4-7.2,6.2-8,12-1.3,9.2,2.9,19.7,5.5,28.5l-.6,1.2c-5.6,12.3-8.9,25.4-15.1,37.6-25.7,51.4-68.2,89.8-116.3,120.2-4-7.4-7-15.3-10.2-23.1-7.7-20.3-15.1-40.8-22.1-61.4-8.6-26.2-13.5-59.2-29.6-81.7-6-.6-11.7-1.1-16.8,2.8-4,3.1-5.1,7.7-5.1,12.5-.1,19.4,16.9,51.6,21.9,72.5-9.3-9.6-28.1-35.2-42-36.2-4.1-.3-6.8,1.3-9.5,4.2-2.4,2.6-3.9,6.4-5.3,9.6-2.5-2.3-6.5-5.3-7.7-8.6-4.7-11.9,14.4-31.4,18.4-42.7,2.2-6.2,2.8-13.6-.3-19.7-5-10-21.1-15.4-31.2-18.3l1.9-12.6c11.5-47,23.6-96.4,20.3-145.1-.9-14.5-3.4-28.8-7.5-42.7-9.6-33.1-28-68-17-103,19.1-61.2,119.8-62.5,112.3-172.2-3.1-45.2-35.4-118.2-19.6-158.4h.1v.1Z"/>
  <path class="st9" d="M2213.3,1663c-2-45.3-5.4-88.4-1.1-133.8,5.9-62.1,23-119,43.2-177.7,20.6-58.5,42.2-116.6,64.8-174.4,20.3-52.4,41.9-105.1,56.6-159.4,9.6-35.4,16.2-71.2,21.5-107.4,2.9-20.2,5.8-77.6,12.3-92.2,3.2-3,5-4.2,9.4-5.5,3.8.7,4.7.8,7,4.2,6.1,8.9,2.8,32.2,2,42.7-6.2,79.6-22.6,158.1-48.9,233.4-14.9,43.8-34,86.1-48.3,130,40.8-52,86.3-97.3,117.4-156,4.5-8.5,7.9-17.2,18.3-19.2l1.6,2.3.9-2c3.1,2.5,4.3,4,5,8,4.4,25.9-38.8,81.2-54.8,100.7-24.5,29.9-51.2,58.7-73.7,90.1-76.7,107.2-117.9,238.2-105.4,370.2,2,21.7,3.9,54.7,12.4,74.3,3.8,1.1,4.7.4,8.5-.8,3.6-5.2,1.3-9.6,2.2-15.7,1.5,5,.8,11.8.9,17,17.9-4.8,36.2-9.1,52.3-18.7,64.3-38.5,14.7-118.5,61.8-179.8,42.3-55,110.1-36.8,134.4-73.2,23.1-34.6,1.5-85.7,32.9-126.1,21.6-27.7,59.7-40.1,93.3-44.5,13.1-1.7,34.4-3.7,45.1,5.4,18.6,15.9-14.4,55-23.1,70.2-6.5,11.4-12.1,23.6-15.2,36.3-13.9,57.9,32.3,72.2,34.5,117.7,2.6,51.4-48.4,75.3-80.4,104.3-29.9,27.1-60.9,54.6-88.1,84.4.1-21.5,3.7-85-11.1-101.2-2.3-2.6-5.3-4.6-8.9-4.3-4,.3-7.7,1.9-10,5.3-2.4,3.5-3.1,8.2-3.5,12.3-1.2,14.4.7,29.6.6,44.1-.2,27.5-1.8,55.1-1.5,82.5-5.1,8.4-9.9,15.9-16.7,23-12-28.9-15.4-63.1-34.2-89-5.3-7.3-8.9-9.6-17.8-10.9-4.4,3.4-7.2,6.2-8,12-1.3,9.2,2.9,19.7,5.5,28.5l-.6,1.2c-5.6,12.3-8.9,25.4-15.1,37.6-25.7,51.4-68.2,89.8-116.3,120.2-4-7.4-7-15.3-10.2-23.1-7.7-20.3-15.1-40.8-22.1-61.4-8.6-26.2-13.5-59.2-29.6-81.7h.2v.1Z"/>
  <path class="st14" d="M2264.9,1806.1c13.9-14.6,31.7-25.9,47.1-39,44.9-38.1,59.5-83.5,72.9-138.8,11.6-47.9,35.5-86.2,79.3-110.4,16.6-9.1,34.6-15.9,50.7-25.9,33.3-20.7,57.1-52.8,59.5-92.7,1-15.9-.2-32.7,3.8-48.1,6.3-24.4,22.7-56.7,45.8-68.9,3.7-1.9,5.5-2.1,9.5-1.1l1.1,2.5c-2.8,7.9-9.3,14.1-13.7,21.1-6.5,10.2-13.2,25.1-16.8,36.6-3.8,12.1-3.4,28.7-3.8,41.6-1.7,54.9-11.3,86.8-57.4,120.2-29.6,21.4-68.8,32.2-94.6,57.8-21.4,21.2-24.1,53.6-36.9,67.1-.6.6-1.2,1.2-1.8,1.7-4.4,3.4-7.2,6.2-8,12-1.3,9.2,2.9,19.7,5.5,28.5l-.6,1.2c-5.6,12.3-8.9,25.4-15.1,37.6-25.7,51.4-68.2,89.8-116.3,120.2-4-7.4-7-15.3-10.2-23.1h0v-.1Z"/>
  <path class="st14" d="M1541.7,1276.7c.2-.5.5-1,.6-1.5,2-8.2-6.2-35.7-7.9-46-12.7-78-14.6-177.9,55.7-230.4,37-27.7,79-27,122.8-21.7,13.6,1.7,27.9,4.2,41.7,3.9,45.4-1.2,70.6-36.3,76.9-77.8,11.6-76.7-62.9-142.8-54.6-223,1.7-15.8,5.8-31.7,13.4-45.8,31.5-57.9,124.3-92.5,144.1-144.4,20.5-53.6-44.9-127.8-11.4-211.2,8.2-20.6,20.8-37.7,38.5-51.1,19.2-14.6,46.2-23.4,70.4-20.1,20.1,2.7,37.5,14.8,49.3,31,58.6,80.1-8.8,183.1,16.7,261.1,27.2,83.4,153,30.9,125.8,198.9-9.2,57.1-40.5,104.3-72.8,150.9-18.2,26.3-36.9,52.5-44.2,84.3-25.2,108.3,83.1,170.9,48.9,300.1-7.6,28.7-23.1,54.7-41.6,77.6-50,62.1-128.4,116.9-67.4,202.8,12.9,18.2,29.8,33.2,45.1,49.2,17.9,19.1,33.3,40.4,45.8,63.4l-1.9,12.6c-17.4-.9-33.9.3-47.8,12.3-23.6,20.4-21.3,57.4-30.4,84.8-10.1-6-17.3-16-24.7-24.9,7.6-13.7,14.1-27.2,17.7-42.6,5.5-23.4,6.5-53.6-7.2-74.3-7.2-10.9-18.1-19.2-31.2-21.4-5.7-.9-11.3.4-16.6,2.4-30.1,11.1-23.4,48.9-43.2,62.7l-2.4-1c-2.4-11,19.2-46.5,22.4-60.9,1.5-6.7.5-14.2,0-21-1.9-2.9-3.7-6.2-6.1-8.8-4.1-4.4-11.4-6.5-17.3-6.1-16.5,1.2-28.4,15.7-38.2,27.4,1-7.1,1.9-14.2,2.9-21.2,3-24.5,2.9-52.7-13.6-72.9-11.8-14.5-27.8-20.3-45.9-22.3l-13.8.3c-17.4,4.2-28.6,13.4-39.1,27.5-7.7,14.4-12.2,28-13.9,44.3,0,21.2,2.9,39.8,7.7,60.3-4.4-2.2-9.2-4.3-13.2-7.3-8.4-20.7-19-41.8-32.2-60-8.8-12.2-20.9-23.8-26.9-37.6-4.8-7.3-7.7-18.2-12.9-26.5-1.3-1-2.7-1.9-4.1-2.8-12.5-8-22.3-8.6-36.5-5.7-25.9-14.9-84-82.1-98.2-108.4-9.5-17.5-16.9-44.5-29.2-58.9h0v-.2h0Z"/>
  <path class="st9" d="M1882.3,619.4c3,.2,4.5.7,7.3,1.8,1.7,3.1,2.1,4,1.6,7.7-1,7.7-4.2,15.8-6.3,23.3-5.3,18.4-10,37.2-10.2,56.4-.9,79.5,46.9,152,32.2,232.5-4,22.1-18.1,72.7-37.3,85.9-2.4-1.4-5.5-3.3-7.4-5.4-3.2-3.6-3.7-7.2-2.8-11.8,1.7-9.1,7.2-17.6,10.9-26,9.7-22.7,15-47,15.7-71.6,1.4-67.7-34.4-126-34.3-196.9,0-31.7,7.2-72.8,30.6-96h0v.1Z"/>
  <path class="st9" d="M1709.8,1452.5c-50.4-99.3-84.1-207.8-48.1-318.4,4.5-13.8,17-54.8,29.1-61.1,3.1-1.6,5.9-2.4,9.2-.8,3.5,1.6,6.6,5.5,7.6,9.1,3.1,10.5-13.8,47.3-17.4,59.2-44.8,146.8,24.2,262.8,97.1,383.2,0,21.2,2.9,39.8,7.7,60.3-4.4-2.2-9.2-4.3-13.2-7.3-8.4-20.7-19-41.8-32.2-60-8.8-12.2-20.9-23.8-26.9-37.6-4.8-7.3-7.7-18.2-12.9-26.5h0v-.1Z"/>
  <path class="st9" d="M1951.6,1065.4c15.5-33,32.5-64.6,51.2-95.9,35.4-59.2,71.5-113.9,91.4-180.7,9.1-30.5,14.1-62,15-93.8.4-13.5-1.9-28.8.2-42,.7-4.6,2.6-9.8,7.3-11.7,3.5-1.4,6.7-.6,10.1.4,8.2,7.4,8.4,21.3,9,31.8,7.2,139.8-63.5,224.5-127.4,337.5-26.6,47-48.8,96.3-76.5,142.6-19.4,32.5-45.6,60.5-59.3,96.2-12.7,32.9-17,67.7-15,102.8,1.2,20.7,13,82.6,7.6,98-3.8.6-7.2.7-11,.6l-13.8.3c-4.2-5.5-11.7-77.3-13.3-89.9,0-60.8,13.1-115.9,47-166.8,14.2-21.3,30.3-41.4,43.8-63.1,13-21,23.6-44,33.8-66.5h0v.2h-.1Z"/>
  <path class="st4" d="M1801.2,1479.3c-1.2-14.5-7.5-30.7-11.6-44.7-15.3-52.5-36.6-108.6-29.1-164.1,15.4-113.4,128.4-183.6,161.6-294.8,23.5-78.6-1.8-145.9,13.4-219.6,15.3-74.3,71.1-133.5,77.3-210.7,3.2-39.8-6.2-82-12.9-121.1-2.7-15.6-8.4-37.3-6.2-52.9.7-4.6,2.5-9.1,6.7-11.6s12-3.2,16.6-1.4c5.3,2.1,7.4,5.6,9.4,10.6,10.7,27.1,15.5,73.2,19.4,102.4,15.4,117.7,1.3,146.9-59.3,248.8-13.6,22.8-27.2,48.2-30.9,74.9-3.7,27-.2,54,5.8,80.3,11,48.4,21,96.6,4.6,145.4-5.4,15.9-13.2,31.4-20.1,46.8-10.7,21.4-23.7,41.7-38.6,60.4-42.2,52.3-82.3,83.6-87.2,155.6-1.6,26.2.7,52.6,6.8,78.2,1.6,12.7,9.1,84.4,13.3,89.9-17.4,4.2-28.6,13.4-39.1,27.5h0l.1.1Z"/>
  <path class="st9" d="M900,1180.6c-18.5-25.2-41.5-54.3-36.9-87.5,11.9-85.6,132.6-98.9,137.5-212.4,1.2-28.1-7.2-54.5-23.6-77.4-12.7-17.7-29.4-31.8-43.2-48.4-36.4-43.8-55.6-104-46.8-160.7,7.6-48.6,34.2-88.5,73.8-117.2,15.6-11.3,32.2-20.3,49.9-27.8,41.5-17.7,82.7-27.6,91.5-78.8,6.5-38.1-3.5-78.5-8.9-116.2-9.4-66,.6-119,41-172.7,15.6-21,34.2-39.5,55.2-55.1,21.8-15.8,50.6-30.2,78.3-25.3,15,2.6,28.2,11.4,36.5,24.2,18.9,29.6,8.4,78.2.6,109.8-12.1,49-40.1,113.3-12,161.2,11.1,18.9,30.4,30.8,51.4,35.7,11.8,2.8,24.4,2.9,36.4,4.5,26.4,3.7,49,18.9,63.4,41.1,17.9,27.6,23.8,62.7,17,94.8-4.5,20.8-13.4,41.3-23.8,59.8-26.5,47.1-80.3,107-44.6,163.7,18.5,29.3,52.8,34.4,82.3,46.9,56.8,23.9,77.5,67.6,65,127.3-5.9,28.3-19.1,55.4-33.5,80.3-35.4,61.2-119.3,158.9-72,231.3,25.5,38.9,72.8,63.9,106.9,95.1,12.3,14.4,19.7,41.5,29.2,58.9,14.3,26.3,72.3,93.5,98.2,108.4-11.6,6.7-19.2,13.8-23,27-3.1,11-4,28-12.3,36.4l-2.6-.9c-5.5-12-2.8-24.6-3.8-37.3-2.5-30-19.8-64-49.4-74.8-14-5.1-28.6-3.9-41.9,2.5-11.9,5.8-21.7,15.1-25.9,27.8-16.9,50.8,60.6,120.7,31.8,152.5-2.2.3-2.9.9-4.8-.6-6.3-4.8-9.7-14.5-14.1-21.1-10.6-15.9-33.6-30.8-52.9-29.6-9.4.6-18,4.5-24.2,11.6-7.1,8.1-9.2,18.5-8.3,29.1.8,10.4,4.6,20.9,8.4,30.7-6.1.7-12,1-17.7,3.5-9.5,8.6-13.9,14.8-18.1,27l-12.1-7.5c-31.7-11.3-62.1-17.6-95.7-17.8-10.8.4-21.6,1-32.3,2.2-48.4,6.2-94.5,28.2-133.5,57-13.3,9.8-25.6,20.9-38.9,30.6-16-14.1-28.4-31.3-33.3-52.4-18.1-78.2,76.6-117.6,68.3-199.3-7.2-71.1-82.9-85.8-135.5-109.5-19.3-8.7-35.9-19.5-52.4-32.8,23.4-37.9,47.6-81.3,35.8-127.5-3-11.9-9.5-24.1-20.7-30.2-7-3.7-15.3-4.5-22.8-2-19.2,6-28.7,25.4-37.1,41.9h.2Z"/>
  <path class="st14" d="M1270.2,1604.6c-1.2,0-3.5-.3-4.6-.6-4.2-1.1-6.7-5.8-8.8-9.2-32.8-54-43-123.2-28.7-184.3,6.4-27.4,17-53.6,23.3-81,26.8-115.7-73.7-149.5-124.9-232.1-33.4-53.9-45.7-116-28.1-177.4,7.1-24.7,17.3-48.7,23-73.7,13.3-58.9-20.8-99.3-50.9-145.9-13.1-20.3-22.8-46.3-25.8-70.3-1.3-10.1-2.3-28.8,5.4-36.5,2.7-2.7,5.1-3.9,9-3.7,4.8.3,11.6,4.8,14.4,8.6,8.1,10.9,10,52.2,17.9,69.8,8.1,18,21.5,34,32.7,50.2,35.1,50.8,44.3,99.4,25.2,158.4-6.9,21.3-16.1,42.8-20,64.8-12.3,69.2,10.3,128.5,58.5,178.6,24.8,25.8,52.5,49.8,73,79.4,41.2,59.7,34,110.6,13.6,176.3-6.1,19.7-13.1,39.4-16.6,59.8-10.3,59.3,10.8,118.5,44.6,166.7-10.8.4-21.6,1-32.3,2.2h.1v-.1Z"/>
  <path class="st14" d="M1398.3,1620.2c-8.8-17.3-19.8-32.3-26.7-50.9-35.9-97.4,25.1-160.2,10.1-247-4.6-26.4-17.1-48.5-30.2-71.5-25.8-45.3-48.7-89.5-50.7-142.9-3-80.1,42.7-158.9,28.6-238.2-15.4-86.7-88.1-135.8-113.3-215.9-24.1-76.8,17.1-152.7,8.7-230.2-6.3-58.2-53-101.5-59.8-172.2-3.9-39.8,7.3-90.4,34.2-121.3,3.2-3.6,7.2-6.6,12.2-6.6s9.7,2.7,12.9,6.4c9.2,10.3,1.2,20.1-4.4,29.3-11.3,18.7-18.6,41.7-20.1,63.5-5.9,82.1,56.8,134.2,61.3,214.8,3.4,59.8-24.3,116.6-17.2,177,10.1,85.9,92.1,141.6,114.3,224.2,27.2,101.2-27.1,175.4-22.5,268.7,4.7,96.5,77.3,144.3,83.6,235.6,3.5,50.3-21.8,99.4-23.7,149.8-1.2,28.9,10.1,85.2,30.9,106s1.3,1.2,1.9,1.8c-9.5,8.6-13.9,14.8-18.1,27l-12.1-7.5h0l.1.1Z"/>
  <path class="st10" d="M1362.6,1826.3c12.1,4.3,21.9,7.6,27.6,20.3,1.9,4.3,2.7,9.6.7,14.1-2.4,5.2-8,8.1-13.3,9.2-4.7,1-9.6.5-14.3,0-2.2-13.9-1.2-29.6-.6-43.7h0l-.1.1Z"/>
  <path class="st11" d="M1589.2,2017.9c3-4.8,5.1-8.7,11.1-9.9,10.9-2.1,21.7,4.2,30.1,10.4,5.9,4.3,10.9,9.1,15.1,15-2.5,2.4-5.2,5.1-8.3,6.7-6.7,3.5-16,4.2-23.1,1.8-12.8-4.2-19.2-12.5-25-24h.1Z"/>
  <path class="st14" d="M1901.4,1832.7c1.6.8,2,.7,3.2,2.1,8.1,9.5,8.6,28.3,7.7,40.5-1.2,16.9-5.8,34.5-18.9,45.9-1.6-.7-4.1-1.7-5.4-2.9-4.1-3.9-5.6-10.8-6.4-16.2-3.2-23,6.4-50.8,19.7-69.3h.1v-.1Z"/>
  <path class="st9" d="M1710.8,1519.1c13.2,22.2,22.1,49.4,23.5,75.3-7.9,2.5-15.4,4.6-19.2,12.6-2.1,4.5-3,10-3.9,14.8-4-7.3-7-17-9.6-24.9-9.5-28.7-4.1-52,9.2-77.8h0Z"/>
  <path class="st9" d="M2032.7,1711.5c7.4,8.9,14.6,18.9,24.7,24.9-4.2,10.4-7.9,21.8-13.6,31.5-6.9,11.7-17.9,27.6-32,30.7-3.9.8-8,.4-11.3-2.1-2.6-2-3.9-5.3-4.5-8.5-5.2-28.3,22.1-55,36.5-76.5h.2Z"/>
  <path class="st14" d="M1722.6,1479.1c6.1,13.8,18.1,25.4,26.9,37.6,13.2,18.2,23.8,39.2,32.2,60-8.8-.3-17.3-.6-24.3,5.6-6.1,5.4-8.6,14-11,21.5-4.4-2.9-8.2-5.9-12.2-9.4-1.4-25.9-10.3-53.1-23.5-75.3,7.8-13.4,13.1-24,11.8-40h.1Z"/>
  <path class="st10" d="M1532.7,1703.7c20.3,9.4,54,40.1,61.7,61.3,2.8,7.8,2.9,16.4-.7,23.9-3.3,6.9-9.5,12-16.9,13.9-7.6,2.1-15.9.7-22.7-3.3-11.8-7-19.7-21.1-27.9-31.7,2.7-.9,5.1-2,7.4-3.7,6.4-4.8,10.1-12.2,11.2-20,2.1-14.9-3.2-28.8-12.2-40.4h.1Z"/>
  <path class="st16" d="M1967.1,2001.1c40.7,3,81.5-3.3,119.4-18.4-17.8,35-67.5,93-97.3,117.8-.3-2-.6-4.1-1-6.1-3.7-21.9-7-52-26.2-65.6,2.7-9,3.7-18.4,5.1-27.7h0Z"/>
  <path class="st10" d="M1589.2,2017.9c-25.4-18.8-69-51.7-73.6-85.8-1-7.7.7-16.4,5.9-22.3,4.1-4.6,9.9-6.4,15.9-6.3,28,.4,57.5,27.8,75.2,47.2,16.2,17.8,36.9,45.9,36.3,71.2,0,4.5-1,7.7-3.4,11.5-4.3-5.9-9.3-10.6-15.1-15-8.4-6.2-19.2-12.5-30.1-10.4-6,1.1-8.1,5.1-11.1,9.9h0Z"/>
  <path class="st10" d="M1967.1,2001.1c3.1-15.8,8.5-31.5,16.5-45.5,13.4-23.4,37.3-43.9,63.7-50.7,12.9-3.3,26.1-2.5,37.5,4.8,8.2,5.2,14,13.1,16,22.6,3.6,17.4-5,36.1-14.4,50.4-37.9,15.1-78.7,21.4-119.4,18.4h.1Z"/>
  <path class="st0" d="M1677.1,1821.6c40.7,22.4,74.6,35.1,121.8,34.3-1.2,27.6-11,83.2-29.6,103.6-5.5,6-12.5,9.7-20.8,9.6-11.6-.2-21.8-7.7-29.7-15.5-34.1-34.1-41.9-85.8-41.8-131.9h0l.1-.1Z"/>
  <path class="st9" d="M1677.1,1821.6c.9-25.7,7.8-51.4,27.3-69.5,15.3-14.2,37.4-20.6,58-19.8,9.5.4,19.6,2.9,26.4,10.1,18.4,19.6,12.8,76.4,11,101.6-.3,4-.6,7.9-1,11.8-47.2.8-81.1-11.9-121.8-34.3h0l.1.1Z"/>
  <path class="st3" d="M1769.6,2219.4c-16-54.7-66.6-148-45-204.7,4.2-10.9,11.9-19.6,22.8-24.1,9.5-3.9,19.4-3.5,28.7.6,39.6,17.4,77.5,115.1,91.7,155.5,6.7,19.2,11.5,39.2,19.4,57.9l.8,1.8c1.1-28.9,3.7-57.8,7.7-86.4,4.1-27.3,12-68,36.3-85.1,9.7-6.8,18.5-8,29.9-6.1,19.3,13.6,22.5,43.7,26.2,65.6.4,2,.7,4.1,1,6.1,3.4,31.2,5,61.7,5.6,93.1-1,38.7-5.5,75.7-15.5,113.1-9.3,23.6-18.9,44.7-33.9,65.3-24.7,3-49.6,6.9-74.3,8.8l-18.8.8c-10.2,1.6-20.7,2.6-31,3.5-68.9,6.1-198.6,22.3-253.8-26-8.1-7.1-13.9-16.3-14.4-27.3-.7-15.2,7.2-25.7,16.6-36.4,42.1-19.5,53.1-22.1,100.2-20.2-27.6-31.1-79.9-91.1-76.3-135.2.8-9.3,4.7-17.6,11.9-23.6,10.1-8.4,23.1-11.2,35.9-9.4,38.6,5.3,76.3,42,99,71.4,10,12.9,18.1,27,28.1,39.8l1,1.3h.2v-.1Z"/>
  <path class="st10" d="M1302.5,1602.5c33.7.2,64.1,6.4,95.7,17.8l12.1,7.5c7,19.3,20.6,31,38.8,39.3,22.6,10.3,45.8,18.7,68.3,29.3,2.2,1.1,1.4.5,3.1,2.1,4,1.7,8.1,3.3,12.1,5.2,9,11.6,14.3,25.5,12.2,40.4-1.1,7.8-4.8,15.2-11.2,20-2.3,1.7-4.7,2.8-7.4,3.7-7.5-3.3-14.9-6.7-22.4-10.2-5.9,4.2-12.1,8.9-19.8,7.8-11-1.6-18.9-11.5-24.8-20-22.3-32.4-34.4-86.7-79.5-94.6-12.1-2.1-25.9,1-35.9,8.3-7.5,5.5-11.8,13.3-13,22.4-2.9,22.3,13.2,35.4,16.2,55.2-9,4.3-47.9-10.9-57.1,15.3-3.1,8.9,1.1,19.6,5.2,27.4,13.2,25.2,39.1,39.5,65.9,46.4.5,0,1,.2,1.5.3-.6,14.1-1.7,29.8.6,43.7-14.7.7-29.8,1.7-40.7,13.1-5.5,5.9-8.3,13.8-7.9,21.8.5,11,7.1,20.4,15.1,27.4,47.3,41.7,110.8,2.1,135.9,31.8,10.1,11.9,13.4,30.7,20.2,44.7,2.5,5.2,5.4,14.8,3.6,20.6-1.6,5-4.5,9.2-8.3,12.7-19,5.7-79.2-48.5-106.4,3.2-4.2,8-4.8,14.2-2.2,22.8,10.4,33.7,56.4,43,59.6,55.1-3.2,4.5-9.6,5.9-14.8,6.7-6.7,1-13.5,1.7-20.3,2.7-19.5-10.7-33.9-34.3-49.3-50.3-22.5-23.4-48.3-44.9-76.3-61.3-60.8-35.6-131.9-51.9-201-33.7-10.5-40.2-25.1-80.2-52.2-112.4-8.6-10.1-20.8-19-28-29.9-.5-.8-1-1.6-1.6-2.5,32.1-63.2,57.5-101,109.2-150.1,13.3-9.7,25.6-20.8,38.9-30.6,39-28.8,85.1-50.8,133.5-57,10.8-1.2,21.5-1.8,32.3-2.2h.1v.1Z"/>
  <path class="st11" d="M2213.2,1750.9c-4.9-21-22-53.1-21.9-72.5,0-4.8,1.1-9.4,5.1-12.5,5.1-3.9,10.8-3.4,16.8-2.8,16.1,22.5,20.9,55.5,29.6,81.7,7,20.6,14.3,41.1,22.1,61.4,3.2,7.7,6.2,15.7,10.2,23.1,48.1-30.4,90.6-68.7,116.3-120.2,6.1-12.2,9.4-25.3,15.1-37.6l.6-1.2c11.7,35.2,23,70.2,31.8,106.2-24,48.5-57.6,108-88.5,152.5,5.6,23.5,9.8,47.9,12.1,71.9-5.9,3.9-9.2,8.4-12.9,14.3-3.3,52,18,100.4,21.1,151.6,1.3,21.2-1.2,42.4-1.6,63.5-.5,21.1,1.1,41.9,2.5,63,.4,5.8-.9,12.2,2,17.4l4.5,1.1-25.4,1.1c-28.3,2.6-56.6,7-83.9,15.2-3.3-8.2-6.5-16.6-9.4-24.9-22-4.1-44.1-7.9-66.1-11.4-4-.7-7.9-1.6-11.9-2.5-67.7-2.4-134.8,8.6-201.7,17.6,9.9-37.4,14.5-74.5,15.5-113.1,23.2-24.5,103.5-88.4,133.3-95.1-13.9-16.6-33.3-29.1-41.8-49.9-2.1-5.1-3.3-11-.6-16.1,2.1-3.8,5.2-5.2,8.9-6.8l54.2-23.2,2.1,14.4c-.2-9-1.1-19.5,3.7-27.4,3.9-6.4,8.3-9.4,15.4-11.2,2.8-.8,5-1.3,7.5-2.8l.7-5.6c-4.6-12,3.3-50.8,7.6-63.8,2.3-6.9,3.9-11.1,10.5-14.5-17.3-16.3-30.9-11.1-48.9-39.4,2.8-5.1,5.8-9.9,9-14.7,8.3-22,20.3-39.1,34.5-57.6-9.5-18.2-25.3-32.2-34.6-51.3,1.4-3.2,2.8-7,5.3-9.6,2.7-2.9,5.4-4.4,9.5-4.2,14,1,32.8,26.5,42,36.2h0l-.3-.3h0Z"/>
  <path class="st7" d="M2197.3,2022.6c15.5,4.8,31.2,14.7,45.4,22.6-1.9,12.6-2.2,32.2-7.8,43.2-2.7-1.5-5.4-3.2-8.5-3.5-7.2-.7-13.7,6-18.9,10.2-2.6-24.2-7.6-48.2-10.3-72.5h.1Z"/>
  <path class="st13" d="M2094.6,2025.7l54.2-23.2,2.1,14.4c2,25.5,5.5,49.6,12.5,74.2l-1.5-1.5c-22.6-21.8-37.9-49.8-67.3-63.9h0Z"/>
  <path class="st12" d="M2191,1779.9c21,27.8,39.2,50.2,43.4,85.7-26.6-9.9-49-25-77.9-28.2,8.3-22,20.3-39.1,34.5-57.6h0v.1Z"/>
  <path class="st8" d="M2283.7,2088.2c2.1,2.1,2.6,4.4,3.1,7.2,3.9,18.8,24.3,174.8,18.6,183.4l-1.6-1.8c-8-18.8-20.6-36-26.3-55.7-8.3-28.2-2-103.6,6.2-133.2h0v.1Z"/>
  <path class="st4" d="M2163.7,2233.3c-8.2-3.3-17-10-23.8-15.7-6.5-5.5-11.9-11.7-12.8-20.4,1.4-3.3,1.6-4.7,4.8-6.5,9.6-5.4,25.2,0,35.2,2.3,49.7,20.3,42.5,20.6,69.2,64.6-22.2-11-47.6-22.2-72.7-24.3h.1Z"/>
  <path class="st12" d="M2196.3,1891.5c13.2,6.2,27.2,11.7,39.6,19.5,2.7,27,3,54.1,5.5,81.1-14.8-10.1-35.4-27.6-54.6-24.4-2.9.5-5.7,1.2-8.6,2-4.6-12,3.3-50.8,7.6-63.8,2.3-6.9,3.9-11.1,10.5-14.5h0v.1Z"/>
  <path class="st8" d="M2316.9,1962.7c13.1-9.8,23.1-21.3,33.4-33.9,5.6,23.5,9.8,47.9,12.1,71.9-5.9,3.9-9.2,8.4-12.9,14.3-3.3,52,18,100.4,21.1,151.6,1.3,21.2-1.2,42.4-1.6,63.5-.5,21.1,1.1,41.9,2.5,63,.4,5.8-.9,12.2,2,17.4l4.5,1.1-25.4,1.1c-.4-46-3.3-91.9-8.7-137.6-3.8-32.4-7.9-64.7-12.4-97-3.3-23.4-19-96.3-14.5-115.3h-.1v-.1Z"/>
  <path class="st9" d="M2407,1670.2c11.7,35.2,23,70.2,31.8,106.2-24,48.5-57.6,108-88.5,152.5-10.3,12.6-20.3,24.1-33.4,33.9,2.5-16.6,5.6-32.8,10.1-49,7.2-26.2,36.6-95.9,27.5-118.8-3.1-2-5.7-3.3-9.5-2.9-21.4,2.5-33.1,68.8-49.5,86.3-.4.4-.8.9-1.2,1.3-5.2-17.4-11.9-33.9-19.2-50.5,48.1-30.4,90.6-68.7,116.3-120.2,6.1-12.2,9.4-25.3,15.1-37.6l.6-1.2h-.1Z"/>
  <path class="st13" d="M2128.1,2098.5c9.7,10.6,19.2,21.3,27.3,33.1-14.8-2.3-38.2-7.4-51.5,1.7-2.4,1.6-4.1,4-4.4,6.9-.5,4.1.5,7.1,3.3,10,12.4,13.4,58.5,29.1,64.5,42.8-10-2.4-25.6-7.7-35.2-2.3-3.2,1.8-3.5,3.2-4.8,6.5.8,8.7,6.3,14.9,12.8,20.4,6.7,5.7,15.6,12.4,23.8,15.7,13.1,12,27.4,23,33.1,40.6-3.9,5.3-7.3,9-12.6,12.9-.7.5-1.3,1-2,1.5l-1.2.9c-67.7-2.4-134.8,8.6-201.7,17.6,9.9-37.4,14.5-74.5,15.5-113.1,23.2-24.5,103.5-88.4,133.3-95.1h-.2v-.1Z"/>
  <path class="st4" d="M798.4,1785.5c74.4-1.4,130.8,9.4,190.2,56.9.5.8,1,1.7,1.6,2.5,7.2,10.9,19.5,19.8,28,29.9,27.1,32.2,41.8,72.1,52.2,112.4,69.1-18.2,140.2-1.9,201,33.7,28,16.4,53.8,37.9,76.3,61.3,15.4,16,29.8,39.6,49.3,50.3-8.6,4.7-20.6,10.9-23,21.3-1.4,6.4,1.9,12.2,5.8,16.9,18.9,22.7,59.4,27.4,86.9,29.3,14.4,1,52.4-.9,61.9,9.3-.5,3.2-.6,3.7-3.3,5.8-17,12.6-36.9,8.3-59.1,28.9-3.8,8.9-6.6,20.3-2.8,29.7,3.3,8.3,11.3,13.6,19.4,16.5,25.2,9.1,60.1,4.8,86.8,5.2-9.4,10.7-17.3,21.2-16.6,36.4.5,11,6.3,20.2,14.4,27.3,55.1,48.3,184.8,32.1,253.8,26,10.3-.9,20.8-1.9,31-3.5l18.8-.8c24.8-2,49.6-5.8,74.3-8.8,15-20.6,24.6-41.7,33.9-65.3,66.9-9,134-20,201.7-17.6,4,.9,7.9,1.8,11.9,2.5,22.1,3.6,44.1,7.4,66.1,11.4,3,8.4,6.1,16.7,9.4,24.9,27.3-8.2,55.6-12.6,83.9-15.2l25.4-1.1c23,.2,46,1.7,68.8,4.5,19.9,3.1,39.2,7.8,58.5,13.4,17.2,5.3,34.5,10.3,51.5,16.3,82.1,32.6,137.7,105.8,179,180.7,21.3,10.2,54.3,9.2,68.4,31.5,2.7,4.3,3.5,8.9,2,13.8-5.1,16.8-31.4,32-46.4,39.3-228.1,111-511.5,30.6-756.4,58.9-93.7,10.8-184.2,39-276,59.5-117.4,25.7-237.2,39.2-357.4,40.3-127.6-.1-253.6-19.1-378.2-45.4-113.1-23.9-225.1-53-340.4-64.9-72.8-7.5-144.3-11.4-217.5-10.3-114.5,1.8-233.9,23.7-344.9-14.7-23.6-8.1-76.4-31.5-86.9-55.4-2.9-6.5-2.6-13.9,0-20.4,14.4-36.8,94.7-70.3,130.9-86.3,2.3-8.6,2.5-18.6,4.3-27.5,5.1-25.5,14.5-49.2,27-71.9,3.8-9.9,10.3-19.2,16.4-27.8,7.3-12.3,16-23.9,24.3-35.6,10-12.8,20-24.9,30.9-37l3.6-3.6c12.7-14.6,26.6-28.1,40.8-41.3l14.6-13.3c9.6-9.5,21.1-17.3,31.3-26.2l3.4-2.1c7.6-6.1,15.6-12,23.4-18,19.6-13.6,40-25.7,60.9-37.2l1.8-1.7,6.7-2.9c45.3-19.8,90.7-26.4,139.8-25.7l2.9,1.1c10.4.6,20.7,1.5,31.1,2.9l7,1.2c29.2,5.9,56.7,14.8,82.7,29.6,39-47.8,66.5-129.2,83.9-188,16.2-52.3,24.1-107.3,28.6-161.7h0l.4-.2h0Z"/>
  <path class="st2" d="M1979.3,2306.7c66.9-9,134-20,201.7-17.6,4,.9,7.9,1.8,11.9,2.5-12.3,12.2-32.7,19.1-48.4,25.8-64.6,27.9-128,50.2-199.1,54.6,15-20.6,24.6-41.7,33.9-65.3h0Z"/>
  <path class="st2" d="M1128.6,2362.2c10.7-.8,21.9,0,32.4,1.9,72.5,13.2,93.1,75,129.6,128.5,26.3-2.6,58.4-7.8,82.5,5.9,7.6,4.4,14.7,10.8,16.8,19.7,2.2,9.1-1.5,18.3-6.5,25.8-27.3,41.3-123.4,80.7-171.4,94.2-14.2,4-29.1,6.4-43.6,9-80.9,13.8-178.3-1.5-250.3-40.3-5.4-2.9-12.7-6.5-14.6-12.7,2.7-25.1,71.3-117.2,92-141.5,35.5-41.8,74.8-85.9,133.1-90.6h0v.1Z"/>
  <path class="st18" d="M1182.2,2525.1c3.3-.3,6.8-.7,10.1-.2,7,1.1,13.9,5.6,17.8,11.6,3.7,5.8,4.7,12.3,2.8,18.9-2.3,8.2-8.5,12.5-15.6,16.3-3.4.7-6.2,1.1-9.7.7-6.6-.9-12.6-4.3-16.3-9.9-3.8-5.8-4.7-13.3-3.3-20.1,1.8-8.8,7.1-12.8,14.3-17.3h-.1Z"/>
  <path class="st18" d="M1094.5,2568.8c4,.4,8.1.7,11.9,1.9,9.9,2.9,18.2,9.8,22.8,19,4.4,8.9,5.1,19.5,1.4,28.8-4.8,12.1-13.9,18-25.5,22.9-8.8-.3-16.1-1.1-23.7-5.9-8.9-5.6-15.5-14.4-17.5-24.8-1.8-8.9-.2-18.3,4.9-25.9,6.1-9,15.3-13.7,25.7-15.9h0v-.1Z"/>
  <path class="st18" d="M1153.5,2408.2c8-.2,15.8,1,23,4.6,9.5,4.7,16.7,13.1,19.8,23.3,3,10,1.8,20.9-3.2,30-5.9,10.9-14.9,16.6-26.5,20.1-9,.5-16.7.2-24.8-4.1-9.6-5-17-13.4-20.2-23.8-3.2-10-2.1-20.9,3-30.1,6.6-11.7,16.4-16.7,28.9-19.9h0v-.1Z"/>
  <path class="st18" d="M1010,2481.7c6.4-.1,12.9-.4,19.1,1.5,10.8,3.3,19.8,11,24.6,21.3,4.5,9.7,4.7,20.8.6,30.7-5.2,12.8-15.2,19.9-27.5,25-7.1.6-14,.5-20.7-1.9-11-4-20.2-12.2-24.8-23-4.1-9.4-4.1-20.1,0-29.5,5.8-13.1,16-19,28.6-24h.1v-.1Z"/>
  <path class="st1" d="M2377.9,2311.6c23,.2,46,1.7,68.8,4.5,19.9,3.1,39.2,7.8,58.5,13.4,17.2,5.3,34.5,10.3,51.5,16.3,82.1,32.6,137.7,105.8,179,180.7-16.3,2.2-33.7,1.8-50.2,1.4-109.6-3.1-217.6-51.2-327.9-26.1-53.8,12.2-101.6,41-153.1,59.8-79,28.7-158.5,30.7-240.3,16.1-21.6-3.8-44.7-7.9-64.6-17.4-9.2-4.4-22.3-11.1-25-21.7-1-3.9-.4-7.8,1.6-11.3,5.6-10.2,18.1-17.7,28.1-23.1,18.6-10,38.8-17.4,58.3-25.4,31.8-13,63.7-26,94.6-41.2,70.5-34.8,135.3-87.6,211.4-109.5,27.3-8.2,55.6-12.6,83.9-15.2l25.4-1.1h0v-.2h0Z"/>
  <path class="st11" d="M422.4,2126.3c45.3-19.8,90.7-26.4,139.8-25.7l2.9,1.1c10.4.6,20.7,1.5,31.1,2.9l7,1.2c29.2,5.9,56.7,14.8,82.7,29.6,26.3,16.2,48.2,34.5,67.6,58.6,16,22,30.8,44.1,42.9,68.5l4.2,8c6.2,13.9,12.2,27.8,17.5,42.1,7.8,22.6,15.1,45.6,18.6,69.3l2.8,15.4c2.4,23.6,8.2,60.2-8.4,79.7-39.7,46.6-270.7,73.9-335.8,77.4-94.1,5-205-2.2-296.8-24-17.8-4.2-41.5-9-55.8-21-8.3-7-9.4-16.7-9.8-26.9-.1-3.3-.1-6.5,0-9.9,2.3-8.6,2.5-18.6,4.3-27.5,5.1-25.5,14.5-49.2,27-71.9,3.8-9.9,10.3-19.2,16.4-27.8,7.3-12.3,16-23.9,24.3-35.6,10-12.8,20-24.9,30.9-37l3.6-3.6c12.7-14.6,26.6-28.1,40.8-41.3l14.6-13.3c9.6-9.5,21.1-17.3,31.3-26.2l3.4-2.1c7.6-6.1,15.6-12,23.4-18,19.6-13.6,40-25.7,60.9-37.2l1.8-1.7,6.7-2.9h0v-.2h.1Z"/>
  <path class="st6" d="M672.7,2438.1c5.1.2,9.9.6,14.7,2.6,6.5,2.8,12.1,8.2,14.8,14.8,2.9,7.3,2.6,15.4-.7,22.5-4.2,9.1-11.4,13.5-20.2,17.1-4.5.2-9,.4-13.2-1-7.4-2.5-13.7-8.1-16.8-15.3-3.1-7.4-2.8-16,.4-23.2,4.4-9.9,11.4-13.6,21-17.6h0v.1Z"/>
  <path class="st6" d="M397.8,2423.2c6.5-.6,12.4-.8,18.4,1.9,7.3,3.3,13.1,9.3,16,16.8,3,7.6,2.8,16.1-.6,23.5-4,9.1-11.4,14.1-20.3,17.8-5.7.4-12.2.4-17.6-1.5-7.6-2.7-14.1-8.4-17.4-15.8-3.3-7.2-3.5-15.4-.5-22.7,4.1-10.3,12.1-15.8,21.9-20h.1Z"/>
  <path class="st6" d="M180.6,2345.1c14.8-3.8,30.2-7.1,44.2,1.3,7,4.3,11.3,11.2,12.9,19.1,2.2,10.8,0,22-6.4,31.1-5.6,8.2-14.3,14.7-24.1,16.6-9.2,1.7-17.8-1-25.1-6.5-13.1-9.8-12.7-19.7-17.9-33.8,3.8-9.9,10.3-19.2,16.4-27.8h0Z"/>
  <path class="st3" d="M422.4,2126.3c45.3-19.8,90.7-26.4,139.8-25.7l2.9,1.1c10.4.6,20.7,1.5,31.1,2.9l7,1.2c29.2,5.9,56.7,14.8,82.7,29.6,26.3,16.2,48.2,34.5,67.6,58.6,16,22,30.8,44.1,42.9,68.5l4.2,8c6.2,13.9,12.2,27.8,17.5,42.1,7.8,22.6,15.1,45.6,18.6,69.3-22.2,15.7-51.9,25.8-78.6,30.1-73.1,11.8-145.6-9.4-204.9-52.7-74.5-54.9-124.5-136.9-139.3-228.3l1.8-1.7,6.7-2.9h0v-.1Z"/>
  <path class="st11" d="M742.4,2214.8c5.4.7,10.5,1.5,15.3,4.3,7.7,4.6,13.5,12.1,15.4,21,1.7,7.8.2,16-4.2,22.7-6.2,9.3-14.9,12.4-25.4,14.2-6.9-.5-12.9-1.1-19-4.8-6.8-4.1-11.9-10.5-13.7-18.3-1.8-7.7-.5-15.9,3.7-22.6,6.6-10.6,16.2-14,27.9-16.5h0Z"/>
  <path class="st11" d="M547.8,2174.3c9.3-.6,17.6-1.2,26.5,2.4,11,4.4,19.8,13.1,24.3,24.1,4.5,10.8,4.4,22.9-.3,33.6-5.6,12.7-15.5,19.6-28.1,24.5-8.1,1-16.2,1.4-24-1.1-11.3-3.5-20.6-11.1-25.8-21.7-5.1-10.4-5.8-22.5-1.9-33.4,5.1-14.7,16-22.2,29.5-28.3h-.2v-.1Z"/>
  <path class="st1" d="M798.4,1785.5c74.4-1.4,130.8,9.4,190.2,56.9.5.8,1,1.7,1.6,2.5,7.2,10.9,19.5,19.8,28,29.9,27.1,32.2,41.8,72.1,52.2,112.4,69.1-18.2,140.2-1.9,201,33.7,28,16.4,53.8,37.9,76.3,61.3,15.4,16,29.8,39.6,49.3,50.3-8.6,4.7-20.6,10.9-23,21.3-1.4,6.4,1.9,12.2,5.8,16.9,18.9,22.7,59.4,27.4,86.9,29.3,14.4,1,52.4-.9,61.9,9.3-.5,3.2-.6,3.7-3.3,5.8-17,12.6-36.9,8.3-59.1,28.9-98.1,16-186,46.7-280.7,74.2-113.3,33-229.3,61.8-346.2,78.9l-2.8-15.4c-3.5-23.7-10.8-46.7-18.6-69.3-5.3-14.3-11.3-28.2-17.5-42.1l-4.2-8c-12-24.4-26.9-46.5-42.9-68.5-19.4-24-41.3-42.4-67.6-58.6,39-47.8,66.5-129.2,83.9-188,16.2-52.3,24.1-107.3,28.6-161.7h.2,0Z"/>
  <path class="st5" d="M968.1,1949.1c5.2,29.5,0,56.7-4.2,85.9-17.5,82.7-40.1,149.9-91.4,218.8-15.7,21-33.6,42.5-54.5,58.6-5.3-14.3-11.3-28.2-17.5-42.1l-4.2-8c-12-24.4-26.9-46.5-42.9-68.5,41.5-61.4,85.8-120.2,139.3-171.7,11.5-9.6,22.3-19.5,32.5-30.4,13.3-14.1,26.7-31.9,42.8-42.6h.1Z"/>
  <path class="st15" d="M957.2,1998.1c-20.1,82.4-81.5,180.3-134.8,245.8-7.1,8.7-13.9,18.5-21.8,26.4l-4.2-8c48.9-54.3,89.4-118.1,122.2-183.2,13.5-26.7,24.8-54.6,38.6-81h0Z"/>
</svg>