<?xml version="1.0" encoding="UTF-8"?>
<svg id="Layer_1" xmlns="http://www.w3.org/2000/svg" version="1.1" viewBox="0 0 524.1 547.45">
  <!-- Generator: Adobe Illustrator 29.3.1, SVG Export Plug-In . SVG Version: 2.1.0 Build 151)  -->
  <defs>
    <style>
      .st0 {
        fill: #0c263d;
      }

      .st1 {
        fill: #f6ad9e;
      }

      .st2 {
        opacity: .8;
      }

      .st2, .st3 {
        fill: #fdfffe;
      }

      .st4 {
        fill: #e02824;
      }

      .st5 {
        fill: #ef5656;
      }
    </style>
  </defs>
  <path class="st5" d="M516.16,257.44c5.49.5,9.1,7.4,7.59,12.88-1.6,5.77-6.95,9.73-12.44,12.12-7.22,3.14-15.84,4.26-22.84.65-12.11-6.25-13.75-22.45-9.63-34.04,3.2-9,8.88-16.89,12.9-25.55,4.63-9.98,5.33-19.52,1.88-29.92-5.68-17.12-22.4-29.07-40.94-25.59-.67.14-1.26.23-1.84.33-.3.13-.64.21-.99.23-6.34,1.62-11.59,5.41-15.31,10.65-11.25,15.14-10.07,36.08-8.39,54,1.91,20.32,5.74,43.17-3.9,62.19-8.03,15.85-23.33,31.49-41.59,34.58-16.94,2.67-25.41-1.13-36.03-14.26-2.48-2.61-5.6-5.19-9.43-4.66-4.31.95,1.67,10.07,3.05,12.08,13.39,19.01,36.71,25.15,58.9,24.74,14.62-.27,29.41-1.93,43.99-3.03,14.72-1.11,29.94-3.53,44.37.88,11.55,3.52,21.66,11.4,28.16,21.58,19.96,31.25,2.11,76.42-34.26,84.97-12.06,2.83-25.44.68-35.34-6.77-9.89-7.45-15.75-20.34-13.75-32.57,2-12.22,12.35-22.91,24.66-24.27,4.75-.52,9.92.41,13.36,3.72,3.44,3.31,4.39,9.37,1.16,12.89-5.05,5.52-16.03,2.04-20.2,8.25-1.74,2.58-1.52,6.15-.05,8.89,2.11,3.94,6.29,6.85,10.69,7.5,16.65,2.45,38.3-10.24,35.89-29.15-.74-7.42-3.62-14.81-8.98-20.1-13.1-14.3-37.15-5.35-52.77-.98-14.78,4.13-29.87,7.47-45.21,8.05-15.3.58-39.08-.57-50.17-12.88-1.54-1.36-3.03-3.2-3.88-3.91-10.17-10.51-15.52-24.49-18.24-38.61-1.06-3.98-1.95-8.68-5.32-11.31-1.08-.62-2.3-.17-2.6,1.07-1,4.81.2,9.96.58,14.71,4.99,23.21,16.79,42.75,34.62,58.4,17.99,15.79,45.19,27.26,56.8,48.96,5.34,9.95,7.88,21.18,7.05,32.45,0,.1,0,.21,0,.31.03,14.6-4.41,23.56-11.52,35.83-9.67,16.67-27.34,28.33-46.89,28.84-11.78.3-23.83-3.96-32.02-12.44-12.5-12.94-14.49-39.35.81-51.25,4.72-3.78,10.34-7.66,16.71-6.38,5.66,1.11,10.74,5.19,13.47,10.15,2.93,10.6-6.33,17.34-15.31,10.84-4.11-1.9-6.83-2.31-8.57,2.46-7.21,17.43,15.28,31.26,30.02,26.79,15.99-4.85,22.13-23.27,18.4-38.34-4.26-17.18-19.61-25.37-32.72-35.18-11.98-8.97-24.87-16.86-35.68-27.3-1.49-1.46-3.03-2.91-4.51-4.39-.32-.04-.64-.19-.88-.44-8.87-8.6-14.86-19.65-18.81-31.27-2.98-8.54-5.39-17.25-6.04-26.27-1.4-14.11,2.61-28.23.78-42.3-.15-2.83-3.55-4.71-4.84-1.42-3.17,7.54-2.43,15.99-4.05,23.91-1.77,8.66-2.07,17.43-4.27,26.05-2.14,8.36-4.6,16.66-7.69,24.73-6.06,15.83-14.66,31-27.49,42.33-8.15,7.21-17.7,12.63-26.46,19.08-8.76,6.46-17,14.33-20.91,24.49-3.46,8.99-3.13,19.48,1.36,28.01,4.49,8.53,13.19,14.83,22.76,15.95,9.57,1.12,19.71-3.18,25.16-11.13,1.62-2.36,2.86-5.15,2.59-8-.27-2.85-2.43-5.65-5.29-5.85-2.58-.19-4.92,1.65-7.5,1.74-3.51.12-6.47-3.3-6.64-6.82-.17-3.51,1.88-6.83,4.59-9.08,4.93-4.1,12.09-5.14,18.15-3.02,6.05,2.12,10.89,7.19,13.18,13.18,3.11,8.16,1.61,17.48-1.94,25.46-6.56,14.76-20.18,26.18-35.85,30.07-15.67,3.89-33.05.17-45.76-9.81-9.78-7.68-16.65-18.69-20.46-30.53-8.03-24.94-2.41-52.85,15.58-72.09,13.17-14.08,29.33-24.98,42.4-39.16,14.49-15.72,22.89-35.84,30.03-55.73,1.7-3.01,12.29-40.92,1.21-26.23-5,6.63-7.28,16.21-11.34,23.51-3.7,6.65-8.05,12.72-13.34,18.23-15.24,15.85-35.75,25.84-57.47,28.72-23.37,3.1-45.26-3.74-67.37-10.12-10.24-2.95-21.2-4.9-31.5-2.18-8.77,2.32-16.47,7.95-22.15,15.03-2.39,2.97-4.48,6.28-5.39,9.99-2.81,11.45,3.4,24.33,14.39,28.82,8.3,3.39,18.49,1.82,24.59-4.92,2.12-3.42,3.12-8.73.56-12.13-1.38-2.22-4.11-3.66-6.73-3.34-1.87.61-3.52,2.1-4.57,3.66-1.01,1.69-1.44,3.28-2.91,4.51-2.6,1.93-6.48.88-8.73-1.14-5.01-4.29-2.9-12,.68-16.5,2.49-3.31,6.6-4.95,10.48-5.88,8.42-2.31,16.45,2.46,22.35,8.11,8.39,7.45,12.02,15.21,9.52,26.68-2.26,10.39-8.6,20.38-18.13,25.46-10.06,5.36-22.66,4.64-33-.16-23.72-10.99-38.67-39.36-30.49-64.85,4.39-13.68,14.39-25.19,26.58-32.79,14.13-8.81,31.37-12.39,47.64-14.39,19.96-2.46,39.81-.78,59.78-1.78,4.62-.23,9.28.5,13.8-.23,12.17-2.52,22.85-9.21,32.08-17.33,8.11-7.13,18.52-16.27,23.21-26.09,1.55-3.24-.74-2.39-2.98-2.05-5.33,2.27-9.02,6.88-12.87,10.97-10.47,11.1-24.8,22.89-40.8,22.91-13.42.01-26.51-8.28-35.75-17.52-9.45-9.44-15.84-21.55-19.65-34.27-5.69-18.99-6.61-39.81-5.57-59.5.38-7.11.57-14.37-1.36-21.22-1.93-6.85-6.32-13.35-12.86-16.17-11.32-4.88-20.06,3.47-21.64,14.23-1.68,11.42,2.52,22.69,1.75,34.08-1.07,15.77-14.11,38.95-33.06,30.85-10.75-4.59-15.17-19.47-9.56-29.6,1.58-2.85,5.07-5.66,8.56-4.82,5.02,1.22,5.04,8.09,5.98,12.14.25,1.09.58,2.29,1.51,2.91,1.66,1.11,3.85-.39,5.01-2.02,4.65-6.51,3.74-15.49,1.14-23.05-2.6-7.56-6.68-14.7-7.9-22.6-1.96-12.69,4.11-25.86,13.94-34.13,16.98-14.28,43.09-15.67,62.04-4.57,20.88,12.23,29.2,36.84,29.39,59.93.12,14.22-1.13,29.43,4.47,42.87,7.05,13.51,16.24,24.59,33.06,23.79,9.95-.48,20.03-6.02,25.34-14.54,6.59-10.58,4.77-21.84-.78-32.35-11.24-21.21-25.77-39.83-34.07-62.81-7.69-21.28-11.2-44.33-7.9-66.72,5.78-39.25,35.9-72.21,71.64-87.6,40.27-17.34,94.33-14.55,125.08,19.77,25.25,28.19,37.3,67.11,30.83,104.56-3.22,16.55-10.23,31.98-18.46,46.6-12.82,24.73-21.01,50.48-20.06,78.64.21,6.17.8,12.53,3.35,18.23,2.1,4.7,5.64,8.9,10.33,11.01,5.11,2.3,11.23,1.89,16.28-.55,12.65-6.14,14.52-20.61,13.96-33.21-.8-18.05-3.75-35.62-1.13-53.73,3.45-23.86,19.01-45.08,40.32-56.18,37.19-19.37,81.75-2.17,91.76,39.68,2.62,10.96,2.62,23.28-.83,34.08-3.16,9.9-10.95,17.4-14.74,27-1,2.54-1.71,5.29-1.26,7.98.44,2.69,2.26,5.29,4.9,5.99,4.2,1.12,8.19-2.71,12.53-2.87.3-.01.6,0,.89.02Z"/>
  <g>
    <g>
      <g>
        <path class="st1" d="M117.88,316.92c-5.01-1.56-9.45-6.32-11.01-11.29-1.96-6.51,2.49-11.23,9.05-8.84,4.18,1.34,7.3,5.13,8.72,9.19.76,2.35.95,4.92.44,7.34-.98,2.87-4.37,4.18-7.2,3.6Z"/>
        <path class="st1" d="M97.1,282.31c-7.94-1.18-12.48-18.75-2.48-20.18,5.95.37,8.21,7.15,8.9,12.17.24,1.31.12,2.7-.67,3.82-.81,2.42-2.93,4.78-5.74,4.19Z"/>
        <path class="st1" d="M88.44,245.38c-8.5-2.64-5.52-21.9,4.15-19.82,6.07,1.65,5.44,10.13,4.8,15.07-.86,3.84-5.28,6.26-8.96,4.75Z"/>
        <path class="st1" d="M86.42,203.05c-6.75-3.14-8.72-18.68-.07-20.6,4.83-.66,6.61,5.05,8.24,8.55,2.63,5.76-.83,14.43-8.17,12.06Z"/>
        <path class="st1" d="M58.59,181.1c-1.17-.04-2.34-.3-3.5-.85-3.23-1.54-5.01-5-4.09-8.44.86-3.22,3.66-5.71,6.82-6.76,3.7-1.23,8.81-1.13,11.94,1.44,3.68,3.02,1.11,7.55-1.6,10.21-2.56,2.5-6.02,4.52-9.56,4.41Z"/>
        <path class="st1" d="M47.62,219.97c-5.26-2.6-6.7-9.85-4.47-14.94,2.93-6.69,11.81-4.74,13.3,1.88.42,1.85.32,3.79.05,5.67-.23,1.62-.58,3.25-1.33,4.7-1.57,3.02-4.43,4.23-7.55,2.69Z"/>
        <path class="st1" d="M33.85,255.11c-9.41-5.93,4.29-21.33,12.31-15.92,7,6.61-4.38,19.58-12.31,15.92Z"/>
      </g>
      <g>
        <path class="st1" d="M205.86,353.56c-9.19-4.2,2.4-20.8,9.95-19.04,2.06.4,3.95,1.57,5.01,3.42,1.3,2.89.29,6.85-1.47,9.36-3.4,3.48-8.22,8.09-13.49,6.25Z"/>
        <path class="st1" d="M177.96,378c-3.15-.22-5.82-2.91-5.75-6.1.44-5.61,9.51-11.54,14.79-11.83,3.25.04,7.37,1.97,7.89,5.5.21,3.56-1.82,7.2-4.9,8.97-3.59,2.22-7.74,3.93-12.03,3.47Z"/>
        <path class="st1" d="M140.99,390.17c-7.89-1.03-10.55-8.6-3.89-13.54,3.74-2.46,8.54-3.04,12.91-2.59,6.2.52,9.5,7.11,5.46,12.08-3.29,4.58-9.39,4.62-14.47,4.04Z"/>
        <path class="st1" d="M105.31,385.41c-5.51-.33-12.89-4.91-10.79-11.26,2.59-5.4,9.62-5.85,14.86-5.09,6.25.46,10.39,6.14,7.12,11.95-2.53,3.27-7.15,4.73-11.19,4.4Z"/>
        <path class="st1" d="M57.16,375.88c-3.88-1.57-5.53-6.63-2.99-10.05,2.37-3.01,6.53-3.73,10.16-3.86,3.77-.69,7.96.64,10.12,3.93,2.98,3.75.69,8.47-3.54,9.88-4.38,1.59-9.44,2.22-13.76.1Z"/>
        <path class="st1" d="M22.22,401.84c-1.2-.5-2.29-1.53-3.14-3.22-3.27-6.48,2.33-18.27,10.58-16.73,11.85,2.22,2.1,23.95-7.45,19.94Z"/>
        <path class="st1" d="M39.62,429.85c-5.78-.83-11.8-6.27-7.35-12.01,2.96-3.12,7.9-2.22,11.66-1.34,4.16.85,8.88,3.96,8.8,8.64.02,2.59-2.28,4.45-4.74,4.58-2.77.4-5.62.7-8.38.12Z"/>
      </g>
      <g>
        <path class="st1" d="M245.92,402.71c-7.41-3.06-3.76-13.87-.17-18.73,2.05-2.53,5.9-4.51,9.07-2.84,9.18,5.44,1.18,24.22-8.9,21.56Z"/>
        <path class="st1" d="M224.21,435.46c-9.59-3.7-2.87-16.29,3.86-19.44,5.8-3.18,13.21,1.16,11.95,8.01-1.1,6.04-9.14,14.01-15.81,11.43Z"/>
        <path class="st1" d="M191.55,457.86c-2.71-2.76-2.5-7.23-.32-10.23,2.4-3.3,5.88-6.94,10.2-7.37,8.2-.82,10.58,9,5.73,14.15-3.85,4.09-10.79,8.36-15.62,3.44Z"/>
        <path class="st1" d="M176.06,493.7c-5.23.39-7.58-4.56-7.91-9.06-.97-4.74.17-11.42,5.47-12.95,11.86-2.36,12.41,20.12,2.44,22.01Z"/>
        <path class="st1" d="M190.51,522.2c-4.01-1.34-8.97-5.12-6.98-9.85,1.16-3.09,3.85-5.2,7.19-5.37,6.46-.56,17.84,5.32,13.52,13-1.28,2.02-3.85,2.44-6.03,2.82-2.59.53-5.26.43-7.71-.61Z"/>
        <path class="st1" d="M223.26,518.35c-9.6-3.54,1-18.69,8.4-17.7,3.51.29,5.03,4.53,4.05,7.53-.57,1.3-1.46,2.44-2.21,3.63-2.11,3.63-5.58,7.6-10.24,6.53Z"/>
      </g>
      <g>
        <path class="st1" d="M275.2,390.58c-3.34-3.37-4.59-8.24-3.79-12.86.41-2.38,1.49-5.09,3.84-6.13,1-.44,2.13-.52,3.22-.4,7.46.77,11.14,9.78,8.97,16.34-1.74,5.26-8.36,7.99-12.24,3.06Z"/>
        <path class="st1" d="M302.95,424.56c-.8-.03-1.59-.15-2.32-.36-6.4-1.84-16.28-15.84-5.54-18.62,1.77-.46,3.64.13,5.27.95,3.24,1.65,5.38,4.82,7.23,7.83,1,1.62,1.78,3.46,1.71,5.36-.12,3.56-3.28,4.94-6.36,4.84Z"/>
        <path class="st1" d="M339.5,437.86c-3.09-4.82-10.53-10.4-16.28-6.48-2.21,1.51-3.93,4.68-3.12,7.37,1.73,5.74,7.06,10.39,12.95,11.49,5.08.95,9.67-2.26,8.43-7.8-.35-1.58-1.04-3.13-1.97-4.58Z"/>
        <path class="st1" d="M367.3,481.07c-5.05-1.3-8.84-6.68-10.16-11.52-.35-4.17-.11-8.86,4.58-10.43,3.55-1.46,6.37,1.46,8.5,3.92,5.61,4.83,8.13,19.66-2.92,18.02Z"/>
        <path class="st1" d="M368.61,517.5c-2.56-.24-4.66-2.43-5.52-4.75-1.45-3.88.45-8.02,2.41-11.38,1.79-2.31,4.58-5.34,7.8-4.67,2.68-.33,4.97,1.07,6.29,3.41,3.78,6.62-3.5,17.69-10.99,17.39Z"/>
        <path class="st1" d="M338.5,529c-4.34-.48-8.57-2.87-9.29-7.25-1.06-6.43,6-9.99,11.38-7.76,2.31.96,4.95,2.27,6.7,4.09,3.57,3.71,1.53,8.77-3,10.35-1.72.6-3.76.79-5.78.57Z"/>
      </g>
      <g>
        <path class="st1" d="M329.79,372.51c-3.64-2.42-6.84-6.2-7.43-10.62-1.17-3-.1-7.15,3.29-8.06,3.63-.64,7.1,1.9,9.79,4.06,3.22,3.48,6.95,8.34,5.02,13.28-1.97,3.96-7.51,3.74-10.67,1.35Z"/>
        <path class="st1" d="M363.36,391.04c-2.82-.54-4.6-2.74-5.97-5.08-1.2-2.39-.59-5.4,1.27-7.26,2.53-2.85,6.68-2.51,10.11-1.96,14.88,3.83,7.91,18.92-5.41,14.31Z"/>
        <path class="st1" d="M404.6,391.36c-2.56-.09-5.77-.22-7.29-2.62-3.93-2.56-3.22-8.41.88-10.4,5.19-3.43,18.54-2.95,19.16,4.92-.54,5.12-8.18,8.23-12.76,8.1Z"/>
        <path class="st1" d="M438.84,383.83c-6.26-.41-9.26-4.06-6.54-10.08,2.06-4.12,9.81-5.59,13.97-4.57,3.35.85,6.61,3.92,5.97,7.61-1.42,5.39-8.45,7.23-13.4,7.03Z"/>
        <path class="st1" d="M481,384.46c-2.91-.33-6.13-.99-8.23-3.16-2.22-2.1-4.9-5.6-2.86-8.64.67-2.89,3.72-4.06,6.42-3.87,5.37-.34,9.83,1.48,11.85,6.74,1.89,4.31-2.94,9.03-7.18,8.93Z"/>
        <path class="st1" d="M492.68,412.35c-2.18-2.3-2.42-5.88-2.58-8.89-.37-3.28.49-6.8,3.05-9,2.18-1.95,6.4-3.28,8.35-.37,1.77,4.71,3.27,14.8-1.58,18.04-2.15,1.27-5.25,2.28-7.24.22Z"/>
        <path class="st1" d="M468.43,435.56c-.58-.11-1.15-.28-1.7-.51-3.44-1.46-5.75-5.3-3.69-8.77,2.05-3.46,7.53-5.31,11.34-4.47,5.91,1.3,8.79,7.4,3.22,11.54-2.47,1.84-6.05,2.82-9.18,2.21Z"/>
      </g>
      <g>
        <path class="st1" d="M365.97,336.23c-3.21-.46-6.85-1.24-8.45-4.47-2.51-3.78-.54-7.27,2.84-9.6,1.34-1.12,3.04-1.53,4.75-1.48,5.93-.78,13.62,2.01,13.58,8.98-.27,6.13-8,6.66-12.72,6.57Z"/>
        <path class="st1" d="M400.18,325.5c-4.05-1.12-4.21-6-2.8-9.26,1.87-5.24,6.99-10.85,13.03-9.86,12.73,3.46-1.42,22.49-10.23,19.12Z"/>
        <path class="st1" d="M421.51,292.16c-9.75-5.54-.91-27.36,9.78-18.73,2.68,2.29,2.16,6.04,1.42,9.11-.91,5.11-5.02,12.76-11.2,9.63Z"/>
        <path class="st1" d="M425.8,249.03c-3.87-.34-7.13-4.2-6.52-8.09,0-4.4.81-10.43,5.85-11.69,5.31-.74,8.08,4.29,7.65,9.01.19,4.7-1.03,11.03-6.97,10.77Z"/>
        <path class="st1" d="M423.05,209.39c-11.1-2.64-3.96-20.13,4.91-20.37,3.34.08,4.71,3.27,4.85,6.19.88,5.86-2.67,15.09-9.76,14.17Z"/>
        <path class="st1" d="M446.14,175.35c-5.11-1.07-5.93-6.01-2.63-9.6,2.79-2.86,6.78-4.49,10.75-4.75,5.53-.56,7.43,7.71,3.44,10.78-3.06,2.58-7.5,4.9-11.55,3.58Z"/>
        <path class="st1" d="M487.32,190.67c-3-1.46-5.56-3.93-7.03-6.93-2.08-3.17-1.93-8.88,2.35-10.02,2.58-.73,5.08.66,7.43,1.57,8.8,3.55,8.52,17.8-2.75,15.39Z"/>
        <path class="st1" d="M488.46,228.68c-7.6-3.71-.7-19.89,7.01-17.84,11.45,1.73,2.16,22-7.01,17.84Z"/>
        <path class="st1" d="M475.56,264.55c-4.13-2.92-4.21-10.46-1.92-14.59.84-1.56,1.8-3.18,3.61-3.68,2.06-.56,4.39-.64,6.13.8,6.68,4.86,1.11,21.24-7.82,17.46Z"/>
      </g>
    </g>
    <path class="st1" d="M259.05,364.57c-7.42-.75-7.46-10.17-4.96-15.46,1.58-3.97,5.39-8.23,10.21-6.82,8.94,2.6,3.22,22.75-5.25,22.28Z"/>
  </g>
  <g>
    <g>
      <g>
        <circle class="st3" cx="229.2" cy="155.78" r="15.65" transform="translate(24.93 343.05) rotate(-76.72)"/>
        <g>
          <path class="st0" d="M241.05,158.86c0,5.89-4.77,10.66-10.66,10.66s-10.66-4.77-10.66-10.66,4.77-10.66,10.66-10.66,10.66,4.77,10.66,10.66Z"/>
          <path class="st2" d="M241.05,152.52c0,1.8-1.46,3.25-3.25,3.25s-3.25-1.46-3.25-3.25,1.46-3.25,3.25-3.25,3.25,1.46,3.25,3.25Z"/>
        </g>
      </g>
      <g>
        <circle class="st3" cx="303.99" cy="155.78" r="15.65" transform="translate(43.74 377.02) rotate(-67.5)"/>
        <g>
          <path class="st0" d="M315.84,158.86c0,5.89-4.77,10.66-10.66,10.66s-10.66-4.77-10.66-10.66,4.77-10.66,10.66-10.66,10.66,4.77,10.66,10.66Z"/>
          <path class="st2" d="M315.84,152.52c0,1.8-1.46,3.25-3.25,3.25s-3.25-1.46-3.25-3.25,1.46-3.25,3.25-3.25,3.25,1.46,3.25,3.25Z"/>
        </g>
      </g>
    </g>
    <path class="st0" d="M266.59,211.5c-8.78,0-15.66-10.37-15.66-23.61,0-1.38,1.12-2.5,2.5-2.5s2.5,1.12,2.5,2.5c0,10.09,4.88,18.61,10.66,18.61s10.66-8.52,10.66-18.61c0-1.38,1.12-2.5,2.5-2.5s2.5,1.12,2.5,2.5c0,13.24-6.88,23.61-15.66,23.61Z"/>
  </g>
  <g>
    <g>
      <path class="st4" d="M366.24,81.22c-1.2-2.92-4.42-4.51-7.42-3.51-8.55,2.88-2.51,15.34,5.23,10.36,2.72-1.75,3.13-4.56,2.19-6.85Z"/>
      <path class="st4" d="M348.79,47.41c-.88-1.85-2.87-3.18-4.92-3.07s-3.95,1.8-4.12,3.84c-.11,1.41.56,2.8,1.48,3.87,1.13,1.31,2.8,2.31,4.52,2.08,1.42-.19,2.67-1.23,3.22-2.56.55-1.32.44-2.88-.18-4.17Z"/>
      <path class="st4" d="M354.27,62.64c1.01.72,2.52.66,3.46-.15.89-.76,1.22-2.09.79-3.18-.43-1.08-1.58-1.84-2.75-1.78-1.16.05-2.25.9-2.58,2.02-.33,1.12.12,2.42,1.07,3.1Z"/>
      <path class="st4" d="M359.81,98.11c-1.23,1.64-1.49,4.02-.45,5.78,1.04,1.76,3.42,2.67,5.31,1.87,1.31-.55,2.22-1.79,2.75-3.1.64-1.6.75-3.55-.24-4.97-.82-1.17-2.32-1.8-3.75-1.67-1.43.12-2.76.94-3.62,2.09Z"/>
      <path class="st4" d="M352.21,94.85c-.43-1-1.41-1.73-2.48-1.87-1.08-.14-2.21.33-2.87,1.19-.67.86-.84,2.07-.44,3.08.32.8.99,1.47,1.83,1.7,1.16.32,2.42-.23,3.27-1.08.41-.41.77-.91.89-1.48.11-.51.03-1.06-.18-1.54Z"/>
    </g>
    <g>
      <path class="st4" d="M199.6,39.61c-3.16,0-5.85,2.38-6.05,5.54-.58,9.01,13.24,8.13,11.56-.91-.59-3.18-3.03-4.63-5.51-4.62Z"/>
      <path class="st4" d="M180.84,57.52c-2.05.12-4.03,1.45-4.7,3.39-.67,1.94.17,4.34,1.99,5.26,1.27.64,2.8.55,4.15.1,1.64-.55,3.2-1.72,3.64-3.39.37-1.39-.13-2.93-1.15-3.95-1.02-1.01-2.5-1.5-3.93-1.42Z"/>
      <path class="st4" d="M200.95,62.36c-.61-.9-1.71-1.44-2.79-1.37-1.08.07-2.11.74-2.6,1.7-.49.97-.44,2.19.14,3.11.46.73,1.25,1.26,2.11,1.33,1.2.1,2.33-.68,3.01-1.67.33-.48.58-1.04.6-1.62.01-.52-.17-1.04-.47-1.48Z"/>
      <path class="st4" d="M177.12,79.82c.42-1,.27-2.22-.38-3.09-.65-.87-1.77-1.36-2.85-1.25-1.08.11-2.07.83-2.53,1.81-.36.78-.37,1.74.04,2.5.57,1.06,1.84,1.58,3.04,1.61.58.01,1.19-.08,1.68-.38.45-.28.78-.71.98-1.2Z"/>
    </g>
  </g>
</svg>