<?xml version="1.0" encoding="UTF-8"?>
<svg id="Layer_1" xmlns="http://www.w3.org/2000/svg" version="1.1" viewBox="0 0 2662.3 1115.2">
  <!-- Generator: Adobe Illustrator 29.3.1, SVG Export Plug-In . SVG Version: 2.1.0 Build 151)  -->
  <defs>
    <style>
      .st0 {
        opacity: .2;
      }

      .st1 {
        fill: #fff;
        isolation: isolate;
        opacity: .4;
      }

      .st2 {
        fill: #7ac1ed;
      }

      .st3 {
        fill: #237fad;
      }
    </style>
  </defs>
  <path class="st3" d="M499.2,787.7c-45.7-1-89.5,8.5-134.4,10.7-27.9,1.4-56-.8-83.8,0-21.2.6-70.8,4.8-68.8,33,2.2,29.9,52.6,22.2,57.8,47.9,9.1,45.1-108.2,49-132.8,52-23.1,2.8-47.1,9.8-70.1,14.2-14.8,2.8-47.5,6-58.7,16.8-36.2,35.1,55.8,51.7,75.8,55.4,59.4,11,118.6,23.6,177.8,35.9,87,18.1,172.7,26.4,260.9,33.2,80.1,6.2,160.1,4.9,240.4,4.9s101.4,7.2,148.4,0c39.6-6.1,30.3-38.4,52.9-61.3,8.6-8.7,18.1-10.1,29.6-12.5,48-9.7,101.2-2.7,150-2.7h221.1c65,0,133.8-6.4,197.9,6.3,40.4,8,92,13.6,120.2,46.7,19,22.3,33.5,38.2,65.6,42.8,75.6,10.7,167,.4,240-15.4,37.9-8.2,124.8-18.6,129.5-70.7,1.9-21.1-16.7-25.3,4-41.8,33.2-26.3,97-22.5,134.6-25.7,96.3-8,196.3-21.6,288.4-52.4,27-9,167-45.1,97.9-97.1-14.4-10.8-34.5-9.3-52.5-12.4-31.4-5.4-62.8-13-94.4-16.9-53.6-6.6-108.9,0-163-5.7-69.1-7.3-137.2-6.2-206.6-6.2-368.7,0-737.3,0-1106,0-67.1,0-133.6.2-200.5,4-48.3,2.8-93.2,12.8-140.7,20.8-57.6,9.7-117.7,5-180.4-3.5h0Z"/>
  <path class="st2" d="M402.4,848.2s120.2-423.4,159.1-443.2,94.9,38.9,94.9,38.9c0,0,77.2-22.5,86-22.5s60.8,27.3,108.6,41.7,178.2-119.5,178.2-119.5h105.8s106.5-129.1,129.1-176.2S1342.7,0,1342.7,0C1342.7,0,1532.5,237.6,1571.5,237.6s109.3,5.5,128.4,44.4,127.7,239.7,127.7,239.7l112-25.3s28,56.7,100.4,103.8,156.4,38.2,167.3,58,61.5,189.8,61.5,189.8H402.4Z"/>
  <g class="st0">
    <path d="M2268.8,848.2s-32.4-108.8-50.9-162.5c-12.4,14.4-19.6,33-31.6,56.1-13,.1-35.9-5.7-47.4-.2-14,6.6-19.7,28-34.3,36.7-39.9-28.3-82.5-50.8-121.6-81-9.5,13.2-25,32.4-41.2,37-18.3-26.8-35.7-54.9-51.2-83.3-12.7-23.2-24.3-56.2-46-72.7,2.9,29.9-2.5,60,4.9,89.5,4.5,18,24,46.3,16.8,65.1-1.2,3-9.6,4.4-11.6,7.2-6,8.7-13.6,25.8-20.2,33.4-13.2,15.3-23.1,7.3-44.2,3.2-26.9-5.2-79.3.7-102.1-13.3-9.8-6.1-16.5-23.8-20.4-33.7-25.3-63.8-4.3-126.7,7.2-191.9,5.2-29.3.7-38.7-8.3-65.3-14.8-43.5-10-90.6-16.1-135.6-6.4,29.7-33.8,55-43.1,84.9-8.1,26.1-7.1,52.8-7,79.9,0,16.1,5,42.9-2,58.2-12.8,28-53.7,31.5-73.8,51.9-29.6,30.2-7.9,88.7-16,126.5-31.1-2.6-68.3,10.8-96.2-6.1-22.2-13.4-28.8-29.5-38-53.4-16.2-42.4-13.9-89.9-29.2-131.6-10-27.4-31.3-52.2-43.9-78.5-12.3-25.8-22.8-51.5-38.2-75.7.9,57.8,4.2,112.3-1.3,169.7-3.9,41.4,24.6,110.1-1.3,137.8-19.9,21.2-43.4,37.6-62.8,59.9-13.2,15.2-20.9,31.7-41.4,31.8-18.5,0-22.9-8.4-40.9-1.8-11.7,4.3-13.9,9.5-26.2,10.5-8.2.7-39.4-4.1-47.6-8.7-24.2-13.6-25.3-52.7-30.7-77.4-3.6-16.3-8.3-31.2-16.2-45.9-21.8-40.5-30.6-86.7-53.1-127.8,1.4,17.5-7.3,33.4-9.5,50.7-3.6,28.1-1,57.6-1.1,85.9,0,31.2-.3,31.8-24.9,46.9-16,9.8-28,18.7-40.8,33.1-10.9,12.2-22.6,37.2-39.6,39.6-7.7-23.6-26.3-6.4-40.8,1.7-22.6,12.7-35.6,12.5-62.3,8.2-10.3-1.7-53.1-1.9-60.1-9-4.8-4.9-1.1-20.2-1.4-26.9-1.1-26.4-10.2-51.6-12.2-77.9-3.1-40.6,9.9-84,3.5-123.7-14.2,26.4-36.9,48.7-52,74.9-12.8,22.2-13.8,49.5-27.3,70.3-8.5,13-30.2,35.2-43.2,44.7-15.9-25.7-37.1-49.8-50-77.3-7.1-15.2-10.1-33.4-11-52.6-35.6,110-66.5,219-66.5,219h1866.3s0,0,0,0Z"/>
  </g>
  <path class="st1" d="M635.9,456.4c14.2,7.3,19.3,10.2,24.5,27.8,3.9,13.5,4.6,30.7,10.5,43.2,11.8-17,12-49.6,29.8-62.8,8.7-6.5,33.6-8.8,43.5-9.4,17.9-1,33.4,10.4,49.7,17.1,20,8.3,16.1,21.3,32.5,34.9,14,11.6,41.8,1.2,60.1,6.6,9.6,2.8,20.1,15.2,29.7,15.8,18.4,1.3,20.8-31.3,30.2-45.1,23.1-33.9,67-39.3,93.3-69.4,20-22.9,22.3-20.6,55-20.4,15.5,0,27.7,4.2,42.9,6.7,6.8,1.1,15.8,3.5,21.2-1.5,2.2-2,3.8-13.1,4.2-14.3,3.4-8.9,7.9-16.2,13.2-24,4.8-7.1,10.2-13.7,16.1-19.8,16.6-16.8,35.2-32.8,46.6-53.8,18.1-33.5,22.5-36.4,60.9-39.8,10.7-.9,40.7-2,46.4-12.4,6.2-11.5.5-41.9.5-54.8,0-35.1,2.8-72.1,21.7-102.5,21.3,13.2,33.2,43.6,50.6,61.6,17,17.5,36,37.3,48.3,58.4,13.8,23.7,28.2,37.7,50.5,52.2,32.2,21,30.4,62.8,38.7,97,2.6,10.5,3.3,30.4,14.1,35.4,15.7,7.4,27.2-4.9,31.9-17.5,9.1-24.8,26.8-61.1,58.2-65.3,14.8-2,17.2,14,23.9,25.4,11.1,19.2,24.6,37,34,57,17,36.3,28.4,76.6,50.5,110.2,7,10.7,14.5,21.2,22,31.6,6,8.2,12.6,23.3,21.6,28.2,14.9,8.1,31.2-3.3,45.2-6.7,31.7-7.5,67,12.1,85.7,36.5,11.4,14.9,20.7,31.7,34.2,44.9,12.8,12.5,17.2,12.4,34.5,12.3,26-.2,52,0,77.9,0,15.9,0,47.6-5.1,61.5,3.7v-3c-32.2-6.1-73.6-15.4-111.8-40.2-72.4-47.1-100.4-103.8-100.4-103.8l-112,25.3s-108.6-200.8-127.7-239.7-89.5-44.4-128.4-44.4S1342.7,0,1342.7,0c0,0-56,120.2-78.5,167.3-22.5,47.1-129.1,176.2-129.1,176.2h-105.8s-130.4,133.9-178.2,119.5-99.7-41.7-108.6-41.7-86,22.5-86,22.5c0,0-56-58.7-94.9-38.9-2.1,1.2-4,2.9-5.5,4.8,19.6,5,41.8,17.1,54.1,27,9,7.3,15.5,14.4,25.7,19.6h0Z"/>
  <path class="st1" d="M308.9,894.2c2.3,4.5,3,9.6,2,14.5-1,5.1-3.1,9.8-6.3,13.9-3.3,4-7.2,7.5-11.6,10.2-4.3,2.6-8.8,4.9-13.5,6.8-18.1,7.2-36.8,12.3-55.5,16.6s-37.3,7.8-55.6,11.9c-2.3.5-4.6,1-6.9,1.6l-3.4.8c-.9.2-1.8.5-2.7.8-1.5.5-2.9,1.1-4.2,1.9-.4.3-.9.7-.8.6h0c0,0,.1.2.2.2.4.4.8.8,1.3,1.2.6.5,1.3.9,2,1.3.4.2.7.4,1.1.6s.9.5,1.4.7c1.9.9,3.9,1.8,5.9,2.6,8.4,3.2,17.1,5.7,25.9,7.4,4.6,1,9.2,2,13.9,3l13.9,3c18.6,4,37.1,8.2,55.7,12.5,18.5,4.3,37,8.8,55.5,13.5,18.5,4.7,36.9,9.6,55.2,15-19-1.9-37.9-4.3-56.8-6.8s-37.7-5.3-56.5-8.2-37.6-6-56.4-9.2l-14.1-2.4c-4.7-.8-9.4-1.6-14.1-2.6-9.9-1.7-19.6-4.3-29-7.7-2.4-.9-4.8-1.9-7.2-3.1-.6-.3-1.1-.5-1.8-.9s-1.3-.7-2-1.1c-1.4-.8-2.7-1.7-4-2.6-1.4-1.1-2.8-2.3-4-3.6-.4-.4-.7-.7-1-1.1-.4-.5-.7-1-1.1-1.5-.6-1-1.2-2-1.7-3.1-1.9-4.4-2-9.3-.3-13.7.4-1.1,1-2.2,1.6-3.2.6-1,1.4-1.9,2.2-2.8.4-.4.8-.9,1.2-1.3l1.2-1c.7-.6,1.5-1.1,2.3-1.7,2.7-1.7,5.6-3,8.7-4,1.4-.5,2.8-.8,4.2-1.2l3.6-.8c2.4-.5,4.7-1,7.1-1.5,18.9-3.8,37.8-6.6,56.4-9.5s37.2-6.1,55.3-10.5c4.4-1.1,8.7-2.5,12.8-4.2,4-1.7,7.8-4,11.1-6.9,3.3-3,5.9-6.6,7.6-10.7,1.8-4.3,2.3-9.1,1.2-13.6h0Z"/>
  <path class="st1" d="M376.9,836.5c-5.6,2.3-11.3,4.6-15.7,7.9-1.1.8-2.1,1.7-3,2.6-.9.9-1.6,1.8-2.3,2.9-1.2,1.9-2,4.1-2.3,6.4-.2,1.8.1,3.5,1.1,5,1,1.4,2.3,2.5,3.9,3.1,2.1,1,4.4,1.7,6.7,2.1,2.5.6,5.6,1.1,8.4,1.6l8.6,1.6,8.7,1.5c1.4.2,2.9.5,4.3.8l4.4.7,8.7,1.4,8.7,1.2,4.4.6,4.4.5,8.7,1.1,8.8,1c23.4,2.7,47,4.3,70.8,6,11.9.8,23.8,1.7,35.7,2.7,11.9,1,23.9,2,35.9,3.6-11.9,2-23.8,3.5-35.8,4.7s-24,2.1-36,2.7c-24.1,1.2-48.3.9-72.4-1.1l-9.1-.8-9-1.1-4.5-.6-4.5-.7-9-1.4c-3-.6-6-1.2-9-1.8l-4.5-.9c-1.5-.3-3-.7-4.5-1.1l-8.9-2.2c-3-.8-5.9-1.7-8.8-2.6s-5.7-1.7-8.9-2.9c-3.5-1.2-6.7-2.9-9.7-4.9-1.7-1.2-3.2-2.6-4.6-4.2-1.4-1.7-2.5-3.7-3.3-5.8-.7-2.1-1.1-4.3-1-6.5,0-2,.5-4.1,1.1-6,1.3-3.5,3.4-6.7,6.1-9.3,1.3-1.2,2.8-2.3,4.3-3.2,1.5-.8,3-1.6,4.6-2.1,6.2-2.3,12.4-2.4,18.5-2.4h0Z"/>
  <path class="st1" d="M752.9,887c14.3.3,28.6.9,42.8,1.6,14.3.5,28.5,1.1,42.7,1.8,14.2.5,28.5,1.1,42.7,1.8,14.2.5,28.4,1.1,42.6,1.8,14.2.5,28.4,1,42.6,1.6,14.2.4,28.4.9,42.6,1.4,14.2.3,28.4.8,42.6,1.2l42.6.9c56.8.9,113.7.9,170.6,0,14.2-.3,28.4-.6,42.7-.8,14.2-.4,28.4-.8,42.7-1.1,14.2-.5,28.5-.9,42.7-1.3,14.2-.5,28.5-1,42.8-1.3-14.1,2.1-28.3,4.1-42.4,6-14.2,1.7-28.3,3.4-42.5,4.9-14.2,1.4-28.4,2.8-42.6,4.1-14.2,1.1-28.5,2.2-42.7,3.2-57,3.7-114.1,5.4-171.3,5l-42.9-.6c-14.3-.4-28.6-.9-42.8-1.4-14.3-.7-28.5-1.5-42.8-2.3-14.3-1-28.5-2.1-42.8-3.2-14.2-1.3-28.5-2.7-42.7-4.2-14.2-1.7-28.4-3.4-42.5-5.2-14.2-2-28.3-4.1-42.4-6.3-14.1-2.4-28.2-4.9-42.2-7.6Z"/>
  <path class="st1" d="M1621.1,898.5c35.1-1.8,70.2-2.8,105.4-3.6s70.2-1.2,105.3-1.4,70.2-.2,105.3-.1l105.2.6,210.5,1.4c17.5,0,34.9,0,52.1-1.2,8.6-.6,17.2-1.6,25.7-3l6.3-1.1c2.1-.4,4.2-.8,6.3-1.3s4.2-1,6.2-1.5,4-1.1,6-1.8c3.9-1.3,7.6-3,11.1-5.1,1.7-1,3.3-2.2,4.7-3.5,1.4-1.3,2.7-2.8,3.8-4.3,2.1-3.2,3.3-6.9,3.4-10.8,0-.5,0-1,0-1.5,0-.5,0-1,0-1.5-.1-1-.3-2-.5-2.9-.2-1-.5-2-.8-2.9-.2-.5-.4-1-.5-1.4-.2-.5-.4-1-.6-1.4-1.7-3.8-4-7.3-6.9-10.3-3-3-6.4-5.6-10-7.8-7.4-4.4-15.7-7.4-24-10.4,8.5,2.1,17.1,4.3,25.2,8.2,4.1,2,7.9,4.4,11.4,7.4,3.5,3.1,6.4,6.7,8.6,10.8.3.5.6,1,.8,1.6.2.5.5,1.1.7,1.6.4,1.1.9,2.2,1.2,3.4.3,1.2.6,2.3.8,3.5.1.6.2,1.2.2,1.8,0,.6.1,1.2.1,1.8.2,5-1,9.9-3.4,14.3-1.2,2.1-2.7,4.1-4.4,5.9-1.7,1.7-3.5,3.3-5.5,4.7-3.8,2.7-8,5-12.4,6.7-2.1.9-4.3,1.7-6.5,2.4s-4.3,1.3-6.5,2-4.3,1.2-6.5,1.8-4.4,1-6.5,1.6c-8.7,2-17.6,3.4-26.4,4.5-17.7,2.2-35.4,3-53,3.6-70.2,2.4-140.5,3.6-210.7,3.7-35.1,0-70.2,0-105.3-.5-35.1-.5-70.2-1.2-105.3-2.4s-70.2-2.5-105.3-4.4-70.2-4-105.3-7h0Z"/>
  <path class="st1" d="M1594.5,957.4c10.1-1.5,20.2-2.5,30.4-3,10.1-.5,20.2-.7,30.2-.6s20.1.5,30.1,1.1,20,1.5,30,2.4c20,1.8,39.9,4.2,59.8,7.1,9.9,1.5,19.9,3.2,29.8,5,9.9,1.9,19.8,3.9,29.7,6.5-10.1,1-20.2,1.5-30.3,1.8s-20.2.4-30.2.4c-20.1-.1-40.2-.9-60.2-2.1-10-.6-20-1.3-30-2.3s-20-2.1-29.9-3.5-19.9-3.1-29.8-5.2c-10-2-19.9-4.5-29.6-7.6Z"/>
  <path class="st1" d="M1316.2,952.3c-26.2,2.5-52.4,4-78.6,5.3s-52.4,2.3-78.6,3-52.4,1.1-78.6,1.3-52.4.1-78.6,0-52.4-.4-78.6-.8-52.6-1.4-79-3.8-52.6-6.4-78.3-13c-25.6-6.7-50.6-16.2-73.4-29.2,24.3,9.6,49.5,16.6,75.2,21,25.6,4.1,51.5,6.6,77.4,7.5,26,.9,52,.7,78.1.4s52.4-.7,78.6-.9,52.4-.2,78.6-.1,52.4.5,78.6,1.2,52.4,1.5,78.6,2.8,52.4,2.8,78.6,5.2h0Z"/>
  <path class="st1" d="M440.6,963.4c6.7.7,13.3,1.6,19.9,2.6s13.1,1.9,19.6,3,13.1,1.9,19.5,3,13,2,19.5,3.1c6.5.9,13,1.9,19.4,3,6.5.9,13,1.9,19.4,3,6.5.9,13,1.8,19.4,2.8l19.5,2.7c26,3.4,52,6.1,78.2,8.2,6.5.5,13.1,1,19.7,1.5,6.6.4,13.2.9,19.7,1.4,6.6.4,13.2.8,19.8,1.3,6.6.3,13.2.8,19.9,1.4-6.5,1.2-13.1,2.3-19.7,3.3-6.6.8-13.2,1.6-19.8,2.4-6.7.6-13.3,1.1-19.9,1.6-6.7.3-13.3.6-20,.8-26.7.6-53.4-.5-80-3.3l-19.9-2.4c-6.6-1-13.2-2-19.8-3.1-6.6-1.2-13.1-2.5-19.7-3.9-6.5-1.5-13-3-19.5-4.7-6.5-1.8-12.9-3.6-19.3-5.5-6.4-2-12.7-4.2-19-6.4-6.3-2.3-12.5-4.8-18.7-7.3s-12.2-5.5-18.2-8.5h0Z"/>
  <path class="st1" d="M1401.2,925.3c8.2-2.3,16.6-4,25.1-5.2,8.4-1.3,16.7-2.2,25.1-2.8s16.7-1,25.1-1.2,16.7,0,25.1.1c16.7.3,33.5,1.2,50.2,2.7,8.4.7,16.7,1.7,25.1,2.8,8.4,1.1,16.7,2.4,25.1,4.2-8.4,1.8-16.7,3-25.1,4.1s-16.7,1.9-25.1,2.6c-16.7,1.4-33.5,2.1-50.2,2.3-8.4.1-16.7.2-25.1,0s-16.7-.6-25.1-1.3-16.7-1.6-25.1-3c-8.5-1.3-16.8-3-25.1-5.4h0Z"/>
  <path class="st1" d="M1752.1,1043c15.6,3.2,31,6.3,46.4,8.7,3.8.7,7.7,1.1,11.6,1.7s7.7,1,11.6,1.5c7.7.9,15.4,1.7,23.1,2.3,15.4,1.2,30.8,1.9,46.2,1.9,7.7,0,15.4-.2,23.1-.6s15.2-1,22.7-2c14.9-2,29.5-5.5,42.8-11.5,6.6-3,12.9-6.7,18.7-11,5.8-4.5,11.2-9.6,15.9-15.2,5-5.7,9.7-11.9,14.7-18.1,5-6.4,10.4-12.4,16.3-18,6-5.7,12.7-10.4,20.1-14.1,7.3-3.6,15.4-5.3,23.5-5-7.6,1.4-14.9,4.4-21.2,9-6.1,4.5-11.7,9.8-16.4,15.7-9.6,11.8-16.8,25.7-26.3,38.9-2.4,3.3-5,6.6-7.8,9.8-1.4,1.6-2.8,3.1-4.3,4.7l-4.7,4.4c-6.4,5.6-13.5,10.4-21.1,14.2-15.1,7.8-31.4,12.2-47.6,14.7-8.1,1.2-16.3,2-24.4,2.4s-16.1.5-24.2.4c-16.1-.3-32.2-1.8-48.1-4.5-7.9-1.3-15.8-3-23.6-4.9-3.9-1-7.8-2-11.6-3.1s-7.7-2.2-11.5-3.6c-15.2-4.9-29.9-11.3-43.9-18.9h0Z"/>
  <path class="st1" d="M2413.7,800.4c8.4-1.1,16.8-1.7,25.3-1.7,8.4-.1,16.7.2,25,.7s16.5,1.3,24.7,2.3c4.1.5,8.1,1,12.6,1.8,4.8.8,9.4,2.1,13.9,3.9,5.2,2.1,9.8,5.5,13.4,9.7,3.6,4.4,5.9,9.7,6.8,15.3.8,5.2.6,10.5-.8,15.5-1.2,4.9-3.4,9.5-6.4,13.6-.7,1-1.5,2-2.4,2.9l-1.3,1.4c-.4.4-.9.8-1.3,1.2s-.9.8-1.3,1.2l-1.4,1.1c-.9.8-1.9,1.4-2.9,2.1-3.8,2.5-8,4.5-12.4,5.8-8.3,2.5-17,3.3-25.6,2.4,8-2.7,15.6-5.8,22.2-10,3.2-2,6.1-4.3,8.8-7,.6-.7,1.2-1.3,1.8-2l.9-1c.3-.3.5-.7.8-1.1s.5-.7.8-1l.6-1.1c.4-.7.8-1.4,1.2-2.2,2.9-5.7,3.6-12.3,2.1-18.5-.7-2.6-2-4.9-3.8-6.9-1.9-1.9-4.3-3.4-6.8-4.2-3.2-1.2-6.6-2-10-2.5l-12-1.9c-8.1-1.4-16.3-2.9-24.4-4.8s-16.1-4-24.1-6.4c-8.1-2.4-16-5.4-23.8-8.8Z"/>
</svg>