<?xml version="1.0" encoding="UTF-8"?>
<svg id="Layer_1" xmlns="http://www.w3.org/2000/svg" version="1.1" viewBox="0 0 363.74 537.1">
  <!-- Generator: Adobe Illustrator 29.3.1, SVG Export Plug-In . SVG Version: 2.1.0 Build 151)  -->
  <defs>
    <style>
      .st0 {
        fill: #a6eded;
      }

      .st1 {
        fill: #0c263d;
      }

      .st2 {
        fill: #f16556;
      }

      .st3 {
        opacity: .8;
      }

      .st3, .st4 {
        fill: #fdfffe;
      }

      .st5 {
        fill: #3da2ad;
      }

      .st6 {
        fill: #58c6c3;
      }
    </style>
  </defs>
  <g>
    <path class="st5" d="M8.56,426.57c-14.18-37.93-12.44-77.36,18.2-106.67,17.79-17.15,38.47-32.45,49.58-55.17,10.88-24.66,12.57-53.1,14.78-79.44.68-11.65,1.34-21.56,2.19-32.89-.29-5.49,2.45-14.4,9.49-12.26,7.24,3.6,4.08,12.66,3.99,19.06-.38,5.87-.66,9.86-1.04,15.24-1.6,25.85-3.3,51.93-9.89,77.08-14,55.45-61.33,64.82-77.7,105.84-7.99,22.79-3.72,43.44,3.88,65.5,2.31,8.73-10.72,12.6-13.48,3.71Z"/>
    <path class="st5" d="M60.42,525.6c-18.35-20.6-25.38-50.15-21.43-77.17,2.43-22.01,12.55-42.12,23.59-61,25.28-39.52,38.65-61.87,45.72-109.34,2.68-18.21,5.01-36.5,6.35-54.86,1.27-18.26,1.74-36.56,2.99-54.81.34-3.11.38-6.28,1.16-9.31,1.16-3.78,5.47-7.82,9.59-5.54,6.46,4.19,2.99,12.5,2.95,18.76-.54,8.58-.89,17.17-1.28,25.75-2.46,44.71-5.79,89.17-19.97,131.74-17.29,47.46-61.83,85.87-58.08,139.72,1.12,14.14,6.09,28.27,13.37,40.14,2.47,4.1,6.78,6.2,6.98,10.98.26,5.91-7.92,9.47-11.94,4.94Z"/>
    <path class="st5" d="M115.43,523.44c-16.63-40.4-20.57-86-10.15-128.5,6.86-28.89,19.47-56,27.45-84.58,11.15-43.58,7.45-88.88,10.92-133.26.74-9.16.65-18.45,2.02-27.52,1.14-5.09,8.16-8.78,11.61-3.56,3.4,4.34,1.37,10.13,1.29,15.15-4.1,48.04-.72,96.85-10.24,144.33-5.78,23.66-14.72,46.41-22.78,69.36-9.4,26.75-13.65,55.24-11.46,83.55,1.17,17.82,5.39,35.21,11.28,52.03.91,2.55,1.91,5.07,2.94,7.56,3.38,8.36-9.06,13.93-12.89,5.45Z"/>
    <path class="st5" d="M166.01,528.28c-17.41-18.51-29.13-42.37-29.81-68.04-1.04-21.71.82-43.62,5.11-64.92,3.43-14.85,7.72-29.46,10.6-44.44,11.41-50.71,14.88-103.05,15.3-154.92.15-10,.66-20,1.21-29.98-.52-5.35,2.63-13.53,9.22-11.48,7.74,3.98,4.02,13.99,4.26,20.93-1.23,20.6-.42,41.25-1.58,61.84-2.81,40.85-6.06,81.89-15.89,121.74-5.51,25.1-13.38,49.74-14.1,75.65-1.51,23.25-.33,49.01,13.85,68.39,3.68,5.29,7.1,10.81,11.73,15.34,6.27,6.57-3.27,16.32-9.89,9.89Z"/>
    <path class="st5" d="M173.25,495.38c-6.69-6.03.29-11.58,4.58-16.23,2.8-3.51,5.03-7.48,7.14-11.44,8.06-14.73,7.91-31.87,7.77-48.2-.44-34.97-3.86-69.85-3.47-104.84.47-28.17,0-56.35.61-84.52.45-13.97.76-27.95.21-41.92-.2-7.01-.35-14.01-.37-21.01.35-6.91-2.56-19.64,7.46-20.11,9.05,2.41,5.93,13.73,6.52,20.73.02,13.99.8,27.97.68,41.96-.97,48.97-1.87,98.01-.23,146.97.73,20.93,2.55,41.81,2.58,62.76.43,20.11-.56,41.26-11.61,58.76-3.05,5.87-7.29,10.96-11.89,15.67-2.28,3.08-6.92,3.9-9.96,1.44Z"/>
    <path class="st5" d="M280.21,523.74c-30.82-36.43-51.31-81.26-58.14-128.53-7.78-55.91-5.12-112.66-8.51-168.91-.62-13.68-.84-27.4-.64-41.09.44-6.72-1.69-18.68,7.85-19.12,9.08,2.35,5.72,13.78,6.11,20.7-.15,13.94.09,27.9.79,41.82,3.63,58.9-.12,119.36,10.46,177.42,5.72,25.95,14.19,51.55,28.47,74.1,5.66,9.49,11.67,18.8,18.48,27.51,2.27,3.76,6.87,6.48,7.06,11.16.23,5.93-7.88,9.45-11.93,4.95Z"/>
    <path class="st5" d="M278.21,469.78c.15-49.95-15.65-96.82-28.34-144.45-7.48-33.75-13.73-68.07-15.24-102.66-.33-20.43.3-40.85,1.38-61.24-1.23-8.05,6.52-17.8,12.82-8.11,2.38,5.06.73,11.02.84,16.43-1.13,20.54-1.61,41.18-.72,61.74,2.01,25.48,6.45,50.72,11.15,75.83,8.81,41.39,24.42,81.25,29.36,123.46,1.49,12.95,2.39,25.98,2.73,39.01-.18,9.05-13.72,9.28-13.98,0Z"/>
    <path class="st5" d="M329.71,530.11c.84-14.14,1.8-28.31.8-42.47-2.42-28.14-8.32-54.48-17.06-80.99-11.52-33.33-29.89-63.78-41.33-97.11-5.47-15.76-8.18-32.32-10.61-48.78-3.15-30.35-2.04-61.46,3.27-91.45,2.15-5.18,8.96-7.39,11.94-1.43,2.55,5.25.17,11.28-.08,16.81-.84,6.28-1.73,12.57-2.1,18.9-2.11,34.47,0,69.63,11.17,102.52,6.83,20.05,16.72,38.78,25.41,58.04,11.72,25.63,21.59,51.9,26.68,79.6,4.19,18.4,7.16,37.21,7.14,56.13.02,8.58-.45,17.15-.97,25.71.07,5.06-.82,11.48-7.25,11.51-3.75,0-7.07-3.18-6.99-6.99Z"/>
    <path class="st5" d="M349.53,414.06c1.54-44.53-1.45-63.56-34.98-94.95-33.53-35.75-35.28-89-29.08-135.06.78-5.79,1.55-11.6,2.63-17.34.93-6.36,2.26-18.95,11.51-15.69,8,4.78.99,19.38.81,27.06-3.89,26.57-6.04,53.73-.47,80.18,9.94,48.37,28.19,47.58,50.7,81.75,14.04,22.1,13.44,48.85,12.86,74.05-.23,9.09-13.75,9.25-13.98,0Z"/>
  </g>
  <path class="st0" d="M327.01,119.63c2.48,18.59,2.1,39.02-5.31,54.74-4.68,9.92-16.39,15.5-26.97,12.21-4.34-1.24-7.87-4.33-10.25-8.14-5.02,8.33-14.47,13.24-25.71,11.61-7.9-.68-13.6-6.4-17-13.25-.33.56-.68,1.1-1.06,1.63-6.07,8.61-16.59,15.09-27.32,11.78-6.63-2.06-11.83-7.12-15.04-13.19-4.5,9.74-14.13,16.07-26.95,14.21-9.54-2.03-15.44-10.09-18.57-18.99-.04.09-.09.18-.14.27-5.26,10.77-17.44,22-30.09,16.44-7.27-2.88-11.85-9.77-14.66-16.87-.26.53-.52,1.05-.81,1.56-4.45,6.61-12.57,11.69-20.74,9.85-21.77-6.13-20.86-43.75-18.1-61.71C76.72,67.12,117.91,16.01,172.76,2.97c39.3-9.34,82.65,3.98,112.15,31.01,19.27,17.65,32.39,41.36,38.53,66.67,1.43,5.89,2.68,12.32,3.57,18.98Z"/>
  <g>
    <g>
      <path class="st6" d="M80.01,102.74c1.68-3.08,5.43-4.45,8.62-2.98,9.11,4.22.91,17.26-7.03,10.82-2.8-2.27-2.91-5.42-1.59-7.84Z"/>
      <path class="st6" d="M103.4,67.46c1.2-1.94,3.56-3.16,5.81-2.79,2.25.37,4.15,2.47,4.09,4.74-.05,1.58-.95,3.03-2.11,4.1-1.4,1.31-3.38,2.21-5.24,1.75-1.55-.38-2.8-1.68-3.25-3.22-.45-1.53-.14-3.24.7-4.59Z"/>
      <path class="st6" d="M95.5,83.64c-1.21.68-2.86.42-3.81-.59-.89-.94-1.1-2.46-.49-3.61.6-1.15,1.97-1.84,3.25-1.64,1.28.2,2.38,1.27,2.61,2.54.23,1.27-.42,2.66-1.56,3.29Z"/>
      <path class="st6" d="M85.08,122.18c1.16,1.96,1.16,4.62-.21,6.44s-4.11,2.54-6.1,1.43c-1.38-.77-2.24-2.24-2.67-3.76-.52-1.85-.4-4.02.87-5.46,1.05-1.2,2.79-1.7,4.35-1.39,1.56.31,2.93,1.38,3.75,2.75Z"/>
      <path class="st6" d="M93.87,119.5c.6-1.05,1.77-1.74,2.97-1.77,1.21-.02,2.4.63,3.03,1.66.63,1.03.68,2.39.12,3.46-.45.85-1.28,1.51-2.23,1.66-1.32.22-2.64-.55-3.48-1.59-.41-.51-.74-1.1-.8-1.74-.06-.58.1-1.17.39-1.68Z"/>
    </g>
    <g>
      <path class="st6" d="M260.54,24.66c3.5-.28,6.71,2.1,7.22,5.58,1.47,9.93-13.93,10.23-12.9.05.36-3.58,2.93-5.41,5.68-5.63Z"/>
      <path class="st6" d="M282.97,42.79c2.28-.06,4.6,1.24,5.52,3.32.92,2.08.21,4.83-1.73,6.02-1.35.83-3.05.86-4.59.49-1.87-.45-3.7-1.61-4.34-3.42-.53-1.5-.13-3.26.91-4.48,1.03-1.21,2.63-1.89,4.23-1.93Z"/>
      <path class="st6" d="M261.13,50.01c.59-1.05,1.76-1.75,2.97-1.77,1.21-.03,2.4.62,3.04,1.65.64,1.02.69,2.39.13,3.45-.44.85-1.27,1.51-2.22,1.67-1.32.22-2.64-.54-3.49-1.58-.41-.5-.74-1.1-.81-1.74-.06-.58.1-1.17.38-1.68Z"/>
      <path class="st6" d="M289.15,67.16c-.56-1.07-.5-2.43.13-3.45.64-1.02,1.83-1.67,3.04-1.65,1.21.03,2.37.73,2.97,1.78.47.84.57,1.89.19,2.77-.53,1.23-1.89,1.92-3.22,2.06-.65.07-1.32.02-1.9-.27-.52-.26-.93-.72-1.2-1.24Z"/>
    </g>
  </g>
  <g>
    <g>
      <path class="st4" d="M173.45,99.38c0,9.61-7.79,17.41-17.41,17.41s-17.41-7.79-17.41-17.41,7.79-17.41,17.41-17.41,17.41,7.79,17.41,17.41Z"/>
      <g>
        <path class="st1" d="M169.22,102.81c0,6.55-5.31,11.86-11.86,11.86s-11.86-5.31-11.86-11.86,5.31-11.86,11.86-11.86,11.86,5.31,11.86,11.86Z"/>
        <path class="st3" d="M169.22,95.76c0,2-1.62,3.62-3.62,3.62s-3.62-1.62-3.62-3.62,1.62-3.62,3.62-3.62,3.62,1.62,3.62,3.62Z"/>
      </g>
    </g>
    <g>
      <circle class="st4" cx="239.23" cy="99.38" r="17.41" transform="translate(-12.83 39.6) rotate(-9.22)"/>
      <g>
        <circle class="st1" cx="240.55" cy="102.81" r="11.86"/>
        <path class="st3" d="M252.41,95.76c0,2-1.62,3.62-3.62,3.62s-3.62-1.62-3.62-3.62,1.62-3.62,3.62-3.62,3.62,1.62,3.62,3.62Z"/>
      </g>
    </g>
    <g>
      <path class="st1" d="M218.74,128c0,7.52-.67,14.4-3.04,19.68-2.88,6.42-8.28,10.49-18.07,10.49s-15.31-4.48-18.23-11.47c-2.14-5.14-2.88-11.64-2.88-18.7h42.21Z"/>
      <path class="st2" d="M215.7,147.68c-2.88,6.42-8.28,10.49-18.07,10.49s-15.31-4.48-18.23-11.47c11.07-4.43,27.04-5.53,36.3.98Z"/>
    </g>
  </g>
</svg>