<svg width="61" height="60" viewBox="0 0 61 60" fill="none" xmlns="http://www.w3.org/2000/svg">
<g clip-path="url(#clip0_179_1511)">
<rect x="0.5" width="60" height="60" rx="30" fill="#007D90"/>
<mask id="mask0_179_1511" style="mask-type:alpha" maskUnits="userSpaceOnUse" x="10" y="10" width="41" height="40">
<rect x="10.5" y="10" width="40" height="40" fill="#D9D9D9"/>
</mask>
<g mask="url(#mask0_179_1511)">
<path d="M43.3904 47.7762L12.7238 17.1096L15.1667 14.6667L45.8333 45.3333L43.3904 47.7762ZM34.0625 28.6133L30.2708 24.8217V14.6212H40.9583V21.7462H34.0625V28.6133ZM27.1667 45.3787C25.2736 45.3787 23.651 44.7026 22.2988 43.3504C20.9468 41.9985 20.2708 40.376 20.2708 38.4829C20.2708 36.5896 20.9468 34.9669 22.2988 33.615C23.651 32.2631 25.2736 31.5871 27.1667 31.5871C27.7592 31.5871 28.3063 31.6535 28.8079 31.7862C29.3099 31.919 29.7975 32.1183 30.2708 32.3842V29.7708L34.0625 33.5625V38.4829C34.0625 40.3826 33.3882 42.0068 32.0396 43.3554C30.6907 44.7043 29.0664 45.3787 27.1667 45.3787Z" fill="white"/>
</g>
</g>
<defs>
<clipPath id="clip0_179_1511">
<rect x="0.5" width="60" height="60" rx="30" fill="white"/>
</clipPath>
</defs>
</svg>
