<svg width="61" height="60" viewBox="0 0 61 60" fill="none" xmlns="http://www.w3.org/2000/svg">
<g clip-path="url(#clip0_179_1518)">
<rect x="0.5" width="60" height="60" rx="30" fill="#007D90"/>
<mask id="mask0_179_1518" style="mask-type:alpha" maskUnits="userSpaceOnUse" x="10" y="10" width="41" height="40">
<rect x="10.5" y="10" width="40" height="40" fill="#D9D9D9"/>
</mask>
<g mask="url(#mask0_179_1518)">
<path d="M27.0571 45.3787C25.1607 45.3787 23.5374 44.7035 22.1871 43.3529C20.8365 42.0026 20.1613 40.3793 20.1613 38.4829C20.1613 36.5865 20.8365 34.9631 22.1871 33.6125C23.5374 32.2622 25.1607 31.5871 27.0571 31.5871C27.649 31.5871 28.196 31.6535 28.6979 31.7862C29.2001 31.919 29.6879 32.1183 30.1613 32.3842V14.6212H40.8488V21.7462H33.9529V38.4829C33.9529 40.3793 33.2776 42.0026 31.9271 43.3529C30.5768 44.7035 28.9535 45.3787 27.0571 45.3787Z" fill="white"/>
</g>
</g>
<defs>
<clipPath id="clip0_179_1518">
<rect x="0.5" width="60" height="60" rx="30" fill="white"/>
</clipPath>
</defs>
</svg>
