<?xml version="1.0" encoding="UTF-8"?>
<svg id="Layer_1" xmlns="http://www.w3.org/2000/svg" version="1.1" viewBox="0 0 240.4 465.1">
  <!-- Generator: Adobe Illustrator 29.3.1, SVG Export Plug-In . SVG Version: 2.1.0 Build 151)  -->
  <defs>
    <style>
      .st0, .st1 {
        fill: #fff;
      }

      .st2 {
        fill: #0c273d;
      }

      .st3 {
        fill: #9a2828;
      }

      .st4 {
        fill: #d33939;
      }

      .st5 {
        fill: #efb2a4;
      }

      .st1 {
        isolation: isolate;
        opacity: .8;
      }
    </style>
  </defs>
  <g>
    <path class="st5" d="M158.9,153.1c-.2,5.9-.4,11.9-.7,17.8,0,1.3-.1,2.5-.1,3.8-.3,6.5-.6,13-.9,19.5,0,1.3-.1,2.5-.2,3.8,0,1.6-.2,3.3-.3,4.9-.4,6.2-1,12.3-1.7,18.5-.1,1.2-.3,2.5-.5,3.7-.5,3.6-1,7.3-1.5,10.9-.2,1.3-.4,2.6-.6,3.8-.8,5.5-1.6,10.9-2.4,16.4-.2,1.2-.3,2.3-.5,3.5-.2,1.3-.3,2.7-.5,4-1,8.6-1.7,17.1-1.9,25.7,0,1.3,0,2.6,0,4-.1,9.2.3,18.4,1.5,27.6.1,1.1.3,2.2.4,3.3,0,.2,0,.4,0,.6,2.9,19.8,16.5,31.3,15.3,57.9-5.6-13-13.9-24.5-25.4-33-6.5-4.8-13.4-9-19.8-13.9-.4-.3-.8-.7-1.3-1-1.2-1-2.4-2-3.6-3-9.3-8-17.3-17.5-23.7-28.1-.8-1.2-1.5-2.4-2.2-3.7-5-8.8-8.9-18.1-11.6-27.8-.4-1.2-.7-2.5-1-3.8-2.7-10.9-3.9-22.1-3.3-33.3,0-1.3.2-2.5.3-3.8.2-1.9.3-3.7.6-5.5.8-6.1,2.2-12.1,4.3-17.9,1.2-3.2,2.4-6.4,3.7-9.5.5-1.2,1-2.3,1.5-3.5,3.6-7.9,7.8-15.6,12.5-22.9.7-1.1,1.4-2.1,2.1-3.1,4-5.9,8.3-11.6,13-16.9.2-.2.4-.4.6-.6.6-.7,1.3-1.5,1.9-2.2,6.7-7.6,13.8-15.1,21.1-22.1,4.1-3.8,11.6-11.7,18-9.2,7.7,3,7.4,21,6.9,35.1h0Z"/>
    <g>
      <path class="st4" d="M158.2,170.9c0,1.3-.1,2.5-.1,3.8-13-2.8-25.2-7.6-36.4-14.6-3.9-2.4-7.7-5.1-11.3-8.1.2-.2.4-.4.6-.6.6-.7,1.3-1.5,1.9-2.2,3.4,2.8,7.1,5.4,10.8,7.7,10.6,6.6,22.2,11.3,34.6,14h0Z"/>
      <path class="st4" d="M157.2,194.2c0,1.3-.1,2.5-.2,3.8-16.7-3.2-32.5-8.8-47.2-16.9-4.9-2.7-9.8-5.7-14.5-9,.7-1.1,1.4-2.1,2.1-3.1,4.6,3.2,9.3,6.1,14.2,8.8,14.2,7.8,29.5,13.3,45.6,16.4h0Z"/>
      <path class="st4" d="M155,221.4c-.1,1.2-.3,2.5-.5,3.7-20.6-2.5-40.1-8.4-58.1-17.7-5.2-2.7-10.2-5.6-15.1-8.8.5-1.2,1-2.3,1.5-3.5,4.9,3.3,10.1,6.3,15.3,9,17.6,9.1,36.7,14.9,56.8,17.3h0Z"/>
      <path class="st4" d="M153,236.1c-.2,1.3-.4,2.6-.6,3.8-20.3,2-40.5,1.7-60.5-1.1-6.5-.9-13-2.1-19.5-3.5,0-1.3.2-2.5.3-3.8,6.6,1.4,13.2,2.6,19.8,3.5,20,2.8,40.3,3.1,60.6,1h0Z"/>
      <path class="st4" d="M149.6,259.8c-.2,1.3-.3,2.7-.5,4-13.3,3.2-26.8,5.6-40.4,7-2.8.3-5.7.5-8.5.8-7.8.6-15.7.9-23.5.9-.4-1.2-.7-2.5-1-3.8,8.1,0,16.2-.2,24.2-.8,16.7-1.3,33.3-4,49.6-8Z"/>
      <path class="st4" d="M147.2,289.5c0,1.3,0,2.6,0,4-11.9,3.7-24.1,6.5-36.4,8.3-3.3.5-6.7.9-10,1.3-3.4.4-6.8.6-10.2.9-.8-1.2-1.5-2.4-2.2-3.7,7.3-.4,14.6-1.1,21.8-2.2,12.5-1.8,24.9-4.7,37.1-8.6h0Z"/>
      <path class="st4" d="M149.1,324.9c-7.6,3-15.2,5.6-23,7.9-2.7.8-5.5,1.5-8.3,2.2-1.2-1-2.4-2-3.6-3,3.7-.9,7.3-1.8,10.9-2.9,7.9-2.3,15.8-5,23.5-8.1.1,1.1.3,2.2.4,3.3,0,.2,0,.4,0,.6h0Z"/>
    </g>
  </g>
  <g>
    <path class="st5" d="M240.3,109.2c-.1.6-.4,1.1-.7,1.6-.3.5-.6.9-.9,1.4-8.5,12.5-7.6,27.4-2.8,41,.9,2.7,2.3,4,2.9,5.1h0c.6,1,.6,1.9-.5,3.6-.4.6-1,1.4-1.7,2.2-4.8,6.8-7.6,15-6.3,23.4.5,3.1,1.2,6.1,2.4,8.9.7,1.7,2,3.5,2.4,5.4.2.9.1,1.8-.4,2.6-.2.3-.4.6-.6.9-.5.7-1.1,1.2-1.7,1.8-3.4,3.6-5.6,7.9-7.2,12.6-2.2,6.7-1.9,13.9.1,20.5,1.5,4.3,3.4,8.8,7.3,11.3.2.1.3.2.5.3,1,1.4-.1,2.5-1.3,3.3-.4.3-.9.5-1.2.8-3,2-6,4.3-8,7.3-5.1,8-6.9,18.5-3.5,27.4.8,2.1,1.8,4.1,2.9,6.1.4.8,1,1.5,1.3,2.3.4.9.4,1.9-.4,2.9-.2.3-.5.5-.8.7-.3.2-.6.4-.9.6-3.9,2.7-5.7,7.2-6.4,11.7-.7,4.3-1.6,8.7-.4,12.9.5,1.9.8,3.9,1.5,5.9.3.9.8,1.9,1.1,2.9.3.9.3,1.7,0,2.6-.2.4-.4.8-.7,1.1-.3.4-.7.7-1.1,1-4.9,4.5-7.7,10.5-9.1,16.8-.5,4.3-1.2,8.6-1.6,12.9,0,.9-1,1.6-1.9,1.5-.4,0-.7-.3-.9-.5-.6,0-1.2-.5-1.7-1.5-3.1-9.4-5.5-18.9-7.3-28.5-.2-1.2-.4-2.4-.7-3.6-2.1-11.9-3.4-23.9-4.6-35.8-.1-1.2-.2-2.4-.4-3.6,0-.9-.2-1.8-.2-2.7-1.4-15-2.7-30.1-3.5-45.1,0-1.2-.1-2.5-.2-3.7,0-1.1-.1-2.2-.1-3.3-.5-12.4-.2-24.9.7-37.3.1-1.6.2-3.2.4-4.8.1-1.2.2-2.5.4-3.7.6-5.7,1.2-11.4,1.4-17.1.3-7.5.5-14.9.9-22.4,0-1.2.1-2.4.2-3.7,0-.2,0-.4,0-.7.8-12.4,2.1-24.8,2.1-37.2v-3.6c0-1.2,0-2.4,0-3.7-.2-7.6-.9-15.8-4.1-22.5-.5-1.1-1.1-2.2-1.8-3.2-.5-.8-1.1-1.5-1.6-2.2-3.3-4-7.3-7-11.6-9.6-1-.6-2.1-1.2-3.2-1.8-1.8-1-3.7-1.9-5.6-2.8-2.9-1.4-6-2.7-9-3.8-1.1-.4-2.3-.8-3.4-1.2-5.3-1.8-10.7-3.2-16.2-4.4-.6-.1-1.2-.3-1.9-.4-.6-.1-1.2-.2-1.8-.4-6.2-1.2-12.4-2-18.7-1.5-1.8.1-3.6.3-5.2-.1-2.5-.7-3-2.4-4-4.5-.9-2-2.3-3.5-3.4-5.3-1.4-2.3-2.7-4.6-4.1-7-2.6-4.3-5.1-8.7-7.8-13-.9-1.5-2.7-4.2-2.1-6,.6-1.8,2.9-1.3,4.3-1.2,11.1.4,22.7-2,30.9-9.7,2.7-2.2,4.8-4.6,6.8-7.4.2-.4.5-.7.7-.9.9-1.1,1.8-1.6,3.3-.9.1,0,.2,0,.3.1,2.1,1,4,2.5,6.1,3.6,5.6,3,11.8,5.8,18,7.2,3.6.8,7.2.7,10.8.4,1.8-.1,3.7-.3,5.5-.4.6,0,1.3-.2,2-.3.8-.1,1.5-.2,2.1,0,.6.2,1.1.7,1.4,1.2.1.2.2.3.3.5,5,7.7,12.8,14,21.6,16.9,1.7.5,3.4,1.1,5.2,1.4.9.1,2,0,3,.1.6.1,1.1.3,1.4.8.4.6.6,1.3.7,2.1,0,0,0,0,0,0,1.4,6.7,4,13.1,7.9,18.7,2.7,3.9,6.1,7.1,9.9,9.9,1.3,1,3.5,1.9,4.9,3.1.4.3.8.7,1.1,1,.6.7.6,1.5.4,2.3-.2,1-.6,2-.6,2.9-1,8,0,17.2,3.1,25,1.1,2.3,2.1,4.7,3.3,6.9.5.8,1.2,1.7,1.7,2.6.2.3.3.6.5.9.2.7.4,1.3.2,2.1h0Z"/>
    <g>
      <path class="st4" d="M129.6.4c.3,7.7.7,15.5,1,23.3.5,11.7,1.1,23.4,1.6,35-.6-.1-1.2-.3-1.9-.4-.6-.1-1.2-.2-1.8-.4-.6-11.3-1.1-22.7-1.6-34.1-.3-7.6-.7-15.1-1-22.6.9-1.1,1.8-1.6,3.3-.9.1,0,.2,0,.3.1h0Z"/>
      <path class="st4" d="M175.5,12.1c-3.8,6.9-7.3,13.9-10.6,21-4.8,10.2-9.2,20.6-13.1,31.2-1.1-.4-2.3-.8-3.4-1.2,3.9-10.7,8.4-21.3,13.2-31.6,3.2-6.9,6.7-13.8,10.4-20.5.8-.1,1.5-.2,2.1,0,.6.2,1.1.7,1.4,1.2h0Z"/>
      <path class="st4" d="M207.8,33.8c-4.2,3.2-8.3,6.5-12.2,10-9.6,8.7-18.4,18.3-26.1,28.8-1-.6-2.1-1.2-3.2-1.8,7.9-10.9,16.9-20.8,26.8-29.7,4-3.6,8.1-7,12.4-10.2.6.1,1.1.3,1.4.8.4.6.6,1.3.7,2.1,0,0,0,0,0,0h0Z"/>
      <path class="st4" d="M232.1,68.8c-6,1.9-11.9,3.9-17.8,6.1-10.1,3.8-20,8.1-29.7,12.8-.5-1.1-1.1-2.2-1.8-3.2,9.9-4.8,20-9.2,30.2-13,5.8-2.2,11.6-4.2,17.5-6.1.4.3.8.7,1.1,1,.6.7.6,1.5.4,2.3h0Z"/>
      <path class="st4" d="M240.3,109.2c-.1.6-.4,1.1-.7,1.6-8.8,0-17.6.4-26.3.9-8.1.5-16.3,1.2-24.4,2.1,0-1.2,0-2.4,0-3.7,8.1-.9,16.1-1.6,24.2-2.1,9-.6,18.1-.9,27.1-1,.2.7.4,1.3.2,2.1h0Z"/>
      <path class="st4" d="M238.3,162.1c-6.9-.5-13.7-1-20.6-1.4-10.4-.6-20.9-1.2-31.3-1.6,0-1.2.1-2.4.2-3.7,10.5.4,20.9,1,31.3,1.6,6.9.4,13.9.9,20.8,1.4h0c.6,1,.6,1.9-.5,3.6h0Z"/>
      <path class="st4" d="M234.6,204.6c-.2.3-.4.6-.6.9-8.6-1.3-17.3-2.2-25.9-2.8-8-.5-16.1-.7-24.2-.5.1-1.2.2-2.5.4-3.7,8.1-.1,16.1,0,24.1.6,8.9.6,17.9,1.5,26.7,2.9.2.9.1,1.8-.4,2.6h0Z"/>
      <path class="st4" d="M231.7,255.3c-8.1-.7-16.1-1.4-24.1-2.1-8.1-.7-16.3-1.4-24.5-2,0-1.2-.1-2.5-.2-3.7,8.4.7,16.8,1.4,25,2.1,8.1.7,16.4,1.4,24.6,2.1.2.1.3.2.5.3,1,1.4-.1,2.5-1.3,3.3h0Z"/>
      <path class="st4" d="M222.7,302.1c-.2.3-.5.5-.8.7-5-.2-9.9-.4-14.9-.4-6.6,0-13.2,0-19.9.3-.1-1.2-.2-2.4-.4-3.6,6.8-.3,13.5-.4,20.2-.3,5.4,0,10.7.2,16.1.5.4.9.4,1.9-.4,2.9h0Z"/>
      <path class="st4" d="M216.7,339.3c-.2.4-.4.8-.7,1.1-2.7,0-5.3,0-8,0-5.2.2-10.4.8-15.6,1.7-.2-1.2-.4-2.4-.7-3.6,5.3-.9,10.7-1.5,16.1-1.7,3-.1,5.9-.1,8.9,0,.3.9.3,1.7,0,2.6h0Z"/>
    </g>
  </g>
  <path class="st4" d="M208,137.8c0,4.9-.2,9.8-.4,14.7-2.2,69.4-7.7,139.1-2.6,208.5,1.6,21.9,3.7,44.7-9.7,63.6-12.5,18.1-29.2,34.7-51.5,39.2-33.4,6.7-68.8-15.6-72-50.9-1.8-20.2,9.9-40.9,30.7-45.1,3.4-.7,19.1-3.9,30.2,7,8.5,8.3,10.9,22.9,6.4,33.8-2.6,6.2-8.3,11.4-15,11.8-5.8.4-10.8-6.4-7.1-11.7,1.5-2.1,3.9-3.3,5.7-5.2,4.2-4.5,3.3-12.6-1.3-16.7-4.7-4.1-12-4.4-17.5-1.5-5.5,2.9-9.2,8.6-10.7,14.6-2.5,10.1.8,21.3,8,28.9,4,4.2,9.2,7.4,14.9,8.6,16.5,3.5,34.6-7.9,42.7-21.8,9-15.4,6.2-32,1-48.1-3.8-11.8-9.1-23-15.3-33.8-5.4-9.4-11.5-18.3-16.1-28.2-9.9-21.5-17.6-45.9-17.3-69.8.2-24.8,8.4-49.8,19.4-71.9,4.7-9.4,11.6-21.8,21.4-35.4-7.4,9.7-16.6,18.9-28,23.8-13.5,5.8-29.1,4.1-43.4,4.8-.9,0-1.9.1-2.8.2-2.8.2-5.7.6-8.4,1.1-2.1.4-4.2.9-6.2,1.5-9.5,2.8-18.1,7.9-24.4,16.2-1.7,2.3-3.2,4.8-5.4,6.8-3,2.8-7.5,3.6-11.5,3.2-6.1-.6-11.1-5.6-14.8-10.2-7.6-9.6-12.3-28.7,2.7-34.1,3.6-1.3,7.6-1.7,11.3-2.6,16.8-3.7,29.3-16.4,37.3-31.1,7.4-13.6,8.5-29.9,16.6-43.2,7.4-12.2,22.1-20.2,35.5-23.7,19.7-5.1,42.1-4,60.3,5.5,21.7,11.3,32,34.4,35.5,57.6,1.7,11.1,1.9,22.3,1.8,33.5h0Z"/>
  <path class="st3" d="M8.5,167.1c-.8-1.9-1.3-3.8-1.4-5.9-.2-4.1,1.4-10,6.7-9.2,7,1.1,13.2,10.3,14.6,16.7,1.3,5.6-1.9,13.1-8.7,10.6-1.9-.7-3.5-2-4.9-3.4-2.5-2.4-4.9-5.5-6.2-8.8h0Z"/>
  <g>
    <path class="st5" d="M163.6,265.6c-3.1-.8-6.3-1.7-6.8-1.9-4.7-1.5-9-3.4-12.7-5.5-5.5-3.1-15.1-8.6-20.2-16-.9-1.4-1.7-2.8-2.3-4.3-.4-1.2-.8-2.4-.9-3.6,0,0,0-.1,0-.1,0-.7-.1-1.4-.1-2.1,0-.4,0-.7,0-1,0-.5.1-1,.2-1.4,0-.1,0-.2,0-.4,0-.2.1-.4.2-.7.2-.6.4-1.3.7-1.9.2-.4.3-.7.5-1,.1-.3.2-.5.4-.7.7-1.2,1.5-2.3,2.4-3.3.6-.7,1.2-1.3,1.7-1.8,2.3-2.2,5.1-4.1,8.3-6,4.2-2.3,8.7-4.1,13-5.9l.4-.2c.2,0,23.8-8.2,26.5-6.8.4.3.7.7.8,1.2.5,3,1.8,7.6,5.4,11.9,2.6,3.2,5.6,5.2,8,6.4.5.3,1.1.5,1.5.7,0,0,.1,0,.2,0,0,0,.1,0,.2.2.2.2.4.5.4.8.1.5,0,1-.4,1.3-.2.2-.5.5-.7.8-.2.2-.4.5-.6.7-.3.4-.6.8-.9,1.2-1.6,2.4-3.2,5.8-3.6,10.1-.4,3.9.4,7.3,1.3,9.7.2.7.5,1.3.8,1.9.1.2.2.5.3.7,0,.1.1.2.2.3.2.4.2.9,0,1.3-.1.3-.4.6-.7.8,0,0-.1,0-.2.1-.3,0-.6.2-.9.3-.5.1-1,.3-1.5.5-2.4.9-5.2,2.5-7.8,5.1-2.4,2.4-4.2,5.4-5.4,8.6-.3.8-.8,1.1-2,1.1-1.2,0-3-.5-5.9-1.2h0Z"/>
    <g>
      <path class="st4" d="M121.8,226.7c.2-.4.3-.7.5-1,.1-.3.2-.5.4-.7.7-1.2,1.5-2.3,2.4-3.3,14.6-2.2,30.8-2.4,45.5-2.4s12.2.5,18.6,1.3c.5.3,1.1.5,1.5.7,0,0,.1,0,.2,0,0,0,.1,0,.2.2.2.2.4.5.4.8.1.5,0,1-.4,1.3-.2.2-.5.5-.7.8-.2.2-.4.5-.6.7-6.7-.9-13.3-1.4-19.3-1.4-16,0-33.6.3-48.8,3h0Z"/>
      <path class="st4" d="M184.6,251.9c-9.1-2-18.2-4.2-27.1-6.6-12.3-3.3-24.7-7-36.8-11.1,0,0,0-.1,0-.1,0-.7-.1-1.4-.1-2.1,0-.4,0-.7,0-1,0-.5.1-1,.2-1.4,12.5,4.2,25.2,8.1,37.8,11.5,9.5,2.6,19.1,4.9,28.8,7,.1.2.2.5.3.7,0,.1.1.2.2.3.2.4.2.9,0,1.3-.1.3-.4.6-.7.8,0,0-.1,0-.2.1-.3,0-.6.2-.9.3-.5.1-1,.3-1.5.5h0Z"/>
    </g>
  </g>
  <g>
    <g>
      <path class="st3" d="M145.2,438.9c-1.5-1.4-3.8-2-5.7-1.1-1.9.8-3.1,3.1-2.5,5,.4,1.4,1.5,2.4,2.8,3.1,1.5.8,3.4,1.2,5,.3,1.3-.7,2.1-2.1,2.1-3.5,0-1.4-.6-2.9-1.6-3.8h0Z"/>
      <path class="st3" d="M156.3,449.5c-.8-.8-1.9-1.1-3-.9-1.1.2-1.9,1.1-2.3,2.1s0,2.2.7,3c.6.6,1.4,1,2.3,1,1.2-.1,2.2-1.1,2.7-2.2.2-.5.4-1.1.3-1.7,0-.5-.4-1-.7-1.4h0Z"/>
      <path class="st3" d="M134.2,450.9c-1.9.8-3.2,2.8-3.2,4.8s1.7,4,3.7,4.2c1.4.1,2.8-.5,3.9-1.4,1.3-1.1,2.4-2.7,2.2-4.5-.1-1.4-1.2-2.7-2.5-3.3-1.3-.6-2.9-.5-4.2,0h0Z"/>
      <path class="st3" d="M111.2,450.6c-.7.8-1,2-.6,3s1.2,1.9,2.3,2.1c1.1.2,2.2-.1,3-.9.6-.6.9-1.5.8-2.4-.2-1.2-1.2-2.1-2.4-2.5-.6-.2-1.2-.3-1.7-.2-.5.1-1,.4-1.3.8h0Z"/>
    </g>
    <g>
      <path class="st3" d="M187.6,180.6c.7,3.1,3.6,5.2,6.8,4.6,8.9-1.5,4.9-14.7-3.5-11.1-3,1.3-3.8,4-3.3,6.4Z"/>
      <path class="st3" d="M190.6,290.9c-.7.8-1,2-.7,3,.3,1,1.2,1.9,2.2,2.1,1.1.3,2.2,0,3-.8.6-.6.9-1.5.8-2.4-.2-1.2-1.2-2.1-2.3-2.5-.5-.2-1.1-.3-1.7-.2-.5.1-1,.4-1.3.8h0Z"/>
      <path class="st3" d="M174,185.1c-.7.8-1,2-.7,3s1.2,1.9,2.2,2.1,2.2,0,3-.8c.6-.6.9-1.5.8-2.4-.2-1.2-1.2-2.1-2.3-2.6-.5-.2-1.1-.3-1.7-.2-.5.1-1,.4-1.3.8h0Z"/>
      <path class="st3" d="M199.4,201.2c0-1.8-.9-3.6-2.4-4.5-1.5-.9-3.5-1-5.1-.2-1.6.8-2.7,2.5-2.8,4.3,0,1.4.5,2.9,1.5,3.8,1.5,1.3,3.8,1.3,5.6.6.9-.3,1.8-.8,2.4-1.6.5-.7.8-1.6.8-2.4h0Z"/>
      <path class="st3" d="M192.8,271.6c.3-2.3-.8-4.9-2.8-6-2-1.2-4.9-.8-6.4,1.1-1,1.3-1.2,3-1,4.7.3,2,1.2,4,3,4.8,1.5.7,3.3.5,4.7-.4,1.4-.9,2.2-2.5,2.4-4.1h0Z"/>
      <path class="st3" d="M201.2,162.4c.2-1.4-.5-3-1.7-3.8-1.3-.7-3.1-.5-4,.7-.6.8-.8,1.9-.6,2.9.2,1.2.8,2.5,1.9,3,.9.4,2.1.3,2.9-.3.9-.6,1.4-1.6,1.5-2.6h0Z"/>
    </g>
    <g>
      <path class="st3" d="M187.6,73.2c-1.1-.2-2.2.3-2.9,1.2s-.9,2.1-.5,3.1c.4,1,1.3,1.8,2.4,2,.9.2,1.8,0,2.4-.7.9-.8,1.1-2.2.8-3.3-.1-.6-.4-1.1-.8-1.5-.4-.4-.9-.6-1.4-.7h0Z"/>
      <path class="st3" d="M160.1,63.6c-.8-.8-1.9-1.1-3-.9-1.1.2-1.9,1.1-2.3,2.1s0,2.2.7,3c.6.6,1.4,1,2.3.9,1.2-.1,2.2-1.1,2.7-2.2.2-.5.4-1.1.3-1.7,0-.5-.4-1-.7-1.4h0Z"/>
      <path class="st3" d="M119.7,47.5c-.8-.8-1.9-1.1-3-.9s-1.9,1.1-2.3,2.1,0,2.2.7,3c.6.6,1.4,1,2.3,1,1.2-.1,2.2-1.1,2.7-2.2.2-.5.4-1.1.3-1.7,0-.5-.3-1-.7-1.4h0Z"/>
      <path class="st3" d="M178,60.4c-.4-1.9-1.8-3.5-3.6-4.2s-4-.2-5.4,1-2.2,3.3-1.9,5.2c.3,1.5,1.2,2.9,2.6,3.6,1.9,1,4.3.5,6.1-.7.9-.6,1.7-1.3,2.1-2.3.4-.8.4-1.8.2-2.7h0Z"/>
      <path class="st3" d="M156.2,51.7c.3-1.6-.3-3.3-1.6-4.4s-3.1-1.4-4.6-.8c-1.5.6-2.7,2-2.9,3.7-.1.8,0,1.7.4,2.5.4.9.9,1.7,1.7,2.2,1.2.9,3,1,4.3.4,1.4-.6,2.4-2,2.7-3.5h0Z"/>
    </g>
  </g>
  <path class="st3" d="M93.5,135.1c-2.1,5.8-5.2,11.1-9.2,15.8-2.1,2.5-4.4,4.6-6.7,6.4-2.8.2-5.7.6-8.4,1.1,4.1-2.3,8.4-5.5,12.3-10,3.7-4.3,6.5-9.2,8.5-14.6.3-1,1.4-1.5,2.4-1.1,1,.4,1.5,1.4,1.1,2.4Z"/>
  <g>
    <path class="st0" d="M101.8,102.3c-5.1,4.4-12.8,3.8-17.2-1.4-4.4-5.1-3.8-12.8,1.4-17.2s12.8-3.8,17.2,1.4c4.4,5.1,3.8,12.8-1.4,17.2Z"/>
    <g>
      <path class="st2" d="M101,95.3c0,4.6-3.8,8.3-8.4,8.2s-8.3-3.8-8.2-8.4,3.8-8.3,8.4-8.2,8.3,3.8,8.2,8.4Z"/>
      <path class="st1" d="M101,90.4c0,1.4-1.2,2.5-2.6,2.5-1.4,0-2.5-1.2-2.5-2.6,0-1.4,1.2-2.5,2.6-2.5,1.4,0,2.5,1.2,2.5,2.6Z"/>
    </g>
  </g>
</svg>