<?xml version="1.0" encoding="UTF-8"?>
<svg id="Layer_1" xmlns="http://www.w3.org/2000/svg" version="1.1" viewBox="0 0 586.9 495.1">
  <!-- Generator: Adobe Illustrator 29.3.1, SVG Export Plug-In . SVG Version: 2.1.0 Build 151)  -->
  <defs>
    <style>
      .st0 {
        fill: #6b6966;
      }

      .st1, .st2 {
        fill: #fff;
      }

      .st3 {
        fill: #d6d1c9;
      }

      .st4 {
        fill: #0c273d;
      }

      .st5 {
        fill: #6c6c6c;
      }

      .st2 {
        isolation: isolate;
        opacity: .8;
      }

      .st6 {
        fill: #707070;
      }
    </style>
  </defs>
  <g>
    <path class="st3" d="M573.4,445.4c-9.6,2.8-19.8,3.1-29.8,3.4-15.7.5-31.5.9-46.8-2.1-25.8-4.9-46.6-19.4-64.3-38.1-.5-.6-1.1-1.1-1.6-1.7l-1-1c-4.9-5-9.1-10.8-14.4-15.4-1.8-2.1,1.5-3.7,2.3-5.4,12.4-17.7,21.6-37.1,31.4-56.2.3-.7.7-1.4,1.4-1.8,1.6-.9,3.4.6,4.7,2,5.2,5.9,10.9,11.3,17,16.3,1,.9,2.1,1.7,3.1,2.6,15.9,12.7,34.1,22.8,52.5,31.6,21.5,10.3,56,23.7,58.9,51.2,1.2,8.3-6.5,12.5-13.4,14.5h0Z"/>
    <g>
      <g>
        <path class="st5" d="M475.4,423.7c-1.1-2.6-3.6-3.9-5.9-2.9-6.5,2.9-1.3,13.9,4.5,9.1,2-1.7,2.2-4.2,1.4-6.2Z"/>
        <path class="st5" d="M451.4,405.2c-1-1.8-3-3-5.1-2.8s-3.9,2-3.9,4,.7,2.8,1.7,3.8,2.9,2.2,4.6,1.9c1.4-.3,2.6-1.4,3.1-2.7.5-1.4.3-2.9-.4-4.2h0Z"/>
        <path class="st5" d="M456.9,404.1c1,.7,2.5.5,3.5-.3.9-.8,1.1-2.1.6-3.2s-1.7-1.8-2.8-1.6c-1.2.1-2.2,1-2.5,2.1s.2,2.4,1.2,3h0Z"/>
        <path class="st5" d="M570,423c-1.2,1.7-1.3,4.1-.2,5.8,1.1,1.7,3.5,2.5,5.4,1.6,1.3-.6,2.1-1.9,2.6-3.2.6-1.6.6-3.6-.5-5-.9-1.1-2.4-1.7-3.8-1.5-1.4.2-2.7,1.1-3.5,2.3h0Z"/>
        <path class="st5" d="M561.6,411.8c-.5-1-1.5-1.7-2.6-1.7s-2.2.4-2.8,1.3-.7,2.1-.3,3.1c.4.8,1.1,1.4,1.9,1.6,1.2.3,2.4-.4,3.2-1.2.4-.4.7-1,.8-1.5,0-.5,0-1.1-.3-1.5h0Z"/>
      </g>
      <path class="st6" d="M475.4,348c-2.7,8.5-6.2,17.5-10.4,24.5-7.5,12.4-18.4,24.5-32.5,36.1-.5-.6-1.1-1.1-1.6-1.7-.3-.3-1.4-1.5-1.7-1.8,13.9-11.4,25.3-22.5,32.6-34.5,4.3-7.1,7.2-16.9,10-25.6,1,.9,2.6,2.1,3.6,3h0Z"/>
    </g>
  </g>
  <g>
    <path class="st3" d="M479.1,310.6c-.6,8.2-2,16.3-4.1,24.3-2.2,8.5-5.3,16.7-9.1,24.6-4.7,9.8-10.5,19-17.4,27.3-37.5,45.6-104.1,61.2-160.8,56-15-1.4-29.5-4.8-43.4-10-50.6-19-92.3-61.6-112.9-111.7-5.8-13.8-9.5-28.7-11.9-43.2-.2-1.2-.5-2.4-.5-3.5v-.3c-3.3,0-6.6,0-9.9.2-11.1.5-22.1,1.4-33.2,1.3-14.5.1-28.9-2.8-42.2-8.6-10.5-4.5-20.4-10.5-29-18.1-2.5-2.3-5.3-5.4-4.6-9.1,1.2-2.7,3.8-4.6,5.9-6.6,12.9-10.4,26-21.2,42.1-26.3,13.8-3.7,28.6-5.2,42.7-2.4,2.7.6,5.5,1.2,8.1,2,.3,0,.6.2.8.3.4-1,.8-2,1.1-3,2-5.4,4.9-10.4,8.1-15.2,9.4-14.8,24.6-24.4,40.3-31.6,7.4-3.8,15.4-6,23.6-7.3,6.9-1.2,9.8,2,9.9,8.7.1,4.9-.5,9.9-1.4,14.7-2.3,10.5-5.9,20.7-9.5,30.9-2.9,7.9-7.1,15.2-11.5,22.3-1.7,2.9-3.4,5.7-5.2,8.5,8.4.9,16.8,1.9,24.9,4.4,10.6,3.4,20,10.1,31.2,11.8,7.7,1.5,15,1.9,22.5,1.7h3.7v-3.2h0c-.4-13.2-3.1-26.1-4.8-39.2-8-61.1-16.7-135.8,33.8-181.9C295.7,1.5,335.6-7.5,373.1,6.6c24.6,9.3,40.9,28,53,50.6,12.6,23,19.9,48.5,23.4,74.3,4,29.7,8.4,58.6,16,87.7,7.8,29.8,16,60.3,13.6,91.4h0Z"/>
    <g>
      <g>
        <g>
          <path class="st0" d="M225.4,264.4c-.9-1.9-2.9-3.2-4.9-3.1s-3.9,1.8-4.1,3.8c-.1,1.4.6,2.8,1.5,3.9,1.1,1.3,2.8,2.3,4.5,2.1,1.4-.2,2.7-1.2,3.2-2.6.6-1.3.4-2.9-.2-4.2h0Z"/>
          <g>
            <path class="st0" d="M133.4,279.8c-2.1.1-4,1.5-4.7,3.4s.2,4.3,2,5.3c1.3.6,2.8.5,4.1.1,1.6-.5,3.2-1.7,3.6-3.4.4-1.4-.1-2.9-1.1-4-1-1-2.5-1.5-3.9-1.4h0Z"/>
            <path class="st0" d="M150.8,294c-.6-.9-1.7-1.4-2.8-1.4s-2.1.7-2.6,1.7-.4,2.2.1,3.1c.5.7,1.2,1.3,2.1,1.3,1.2.1,2.3-.7,3-1.7.3-.5.6-1,.6-1.6s-.2-1-.5-1.5h0Z"/>
            <path class="st0" d="M144.6,309c.4-1,.3-2.2-.4-3.1-.6-.9-1.8-1.4-2.9-1.2s-2.1.8-2.5,1.8c-.4.8-.4,1.7,0,2.5.6,1.1,1.8,1.6,3,1.6s1.2,0,1.7-.4c.4-.3.8-.7,1-1.2h0Z"/>
          </g>
        </g>
        <g>
          <path class="st0" d="M471.2,305.7c-.9-1.9-2.9-3.2-4.9-3.1s-4,1.8-4.1,3.8c-.1,1.4.6,2.8,1.5,3.9,1.1,1.3,2.8,2.3,4.5,2.1,1.4-.2,2.7-1.2,3.2-2.6.5-1.3.4-2.9-.2-4.2h0Z"/>
          <g>
            <path class="st0" d="M466.1,282.2c2,.1,4.2-1,5.1-2.8s.4-4.3-1.3-5.5c-1.2-.8-2.7-.9-4.1-.6-1.7.3-3.4,1.3-4,2.9-.5,1.3-.2,2.9.6,4.1s2.3,1.8,3.7,1.9h0Z"/>
            <path class="st0" d="M450.6,265.9c.5,1,1.5,1.6,2.6,1.7,1.1,0,2.2-.5,2.8-1.4.6-.9.7-2.1.2-3.1s-1.1-1.4-1.9-1.6c-1.2-.2-2.4.4-3.2,1.3-.4.4-.7,1-.8,1.5,0,.5,0,1.1.3,1.5h0Z"/>
            <path class="st0" d="M458.6,251.9c-.5.9-.5,2.2,0,3.1.5.9,1.6,1.6,2.7,1.6s2.2-.6,2.7-1.5c.5-.7.6-1.7.3-2.5-.4-1.1-1.6-1.8-2.8-2-.6,0-1.2,0-1.7.2s-.9.6-1.1,1.1h-.1Z"/>
          </g>
        </g>
        <g>
          <path class="st0" d="M275.6,36.2c-.9-1.8-2.9-3.2-4.9-3.1-2,0-4,1.8-4.1,3.8-.1,1.4.6,2.8,1.5,3.9,1.1,1.3,2.8,2.3,4.5,2.1,1.4-.2,2.7-1.2,3.2-2.6.5-1.3.4-2.9-.2-4.2h0Z"/>
          <path class="st0" d="M293.3,38.2c-.4-1-1.4-1.7-2.5-1.9-1.1,0-2.2.3-2.9,1.2-.7.9-.8,2.1-.4,3.1.3.8,1,1.5,1.8,1.7,1.2.3,2.4-.2,3.3-1.1.4-.4.8-.9.9-1.5.1-.5,0-1.1-.2-1.5h0Z"/>
          <path class="st0" d="M385.1,24.4c-2,.1-4,1.5-4.7,3.4s.2,4.3,2,5.3c1.3.6,2.8.5,4.1,0,1.6-.5,3.2-1.7,3.6-3.4.4-1.4-.1-2.9-1.1-4-1-1-2.5-1.5-3.9-1.4h0Z"/>
          <path class="st0" d="M290.8,26.7c.4-1,.3-2.2-.4-3.1s-1.8-1.4-2.9-1.2c-1.1.1-2.1.8-2.5,1.8-.4.8-.4,1.7,0,2.5.6,1.1,1.8,1.6,3,1.6s1.2,0,1.7-.4c.5-.3.8-.7,1-1.2h0Z"/>
        </g>
      </g>
      <g>
        <path class="st0" d="M85.1,261.3h0c-9.1-.5-18.1-2.5-26.6-5.9s-16.3-8-23.3-13.8c-.8-.7-.9-1.9-.2-2.7s1.8-.9,2.7-.2c6.7,5.6,14.2,10,22.3,13.2s16.7,5.1,25.4,5.6c1,0,1.8,1,1.8,2s-.9,1.8-1.9,1.8h-.1Z"/>
        <path class="st0" d="M96.3,243.6h0c-8.2-.2-16.4-2.3-23.6-6-5.3-2.7-10.1-6.3-14.3-10.6-.7-.8-.7-1.9,0-2.7.8-.7,1.9-.7,2.7,0,3.9,4,8.4,7.4,13.3,9.9,6.7,3.4,14.3,5.4,22,5.6,1,0,1.9.9,1.8,1.9,0,1-.9,1.8-1.9,1.8h0Z"/>
        <path class="st0" d="M127.7,223.7c-.2,0-.4,0-.7-.1-1-.4-1.5-1.4-1.1-2.4,2.2-6,3.5-12.3,3.7-18.7.2-5.2-.2-10.5-1.2-15.6-.2-1,.4-2,1.5-2.2,1-.2,2,.4,2.2,1.5,1.1,5.4,1.6,11,1.3,16.5-.3,6.8-1.6,13.4-4,19.8-.3.8-1,1.2-1.8,1.2h0Z"/>
        <path class="st0" d="M147,215.1c-.4,0-.7-.1-1-.3-.9-.6-1.1-1.7-.6-2.6,3.4-5.2,5.8-11,7.1-17,1.4-6.3,1.6-12.8.6-19.2-.2-1,.6-2,1.6-2.1,1-.2,2,.6,2.1,1.6,1.1,6.9.8,13.8-.7,20.6-1.4,6.5-4,12.7-7.6,18.3-.4.6-1,.9-1.6.9h0v-.2Z"/>
      </g>
      <path class="st0" d="M236.2,265.6c-1.7,7.5-5.2,14.6-10,20.6-.4.5-.9.7-1.5.7s-.8-.1-1.2-.4c-.8-.6-1-1.8-.3-2.6,4.5-5.6,7.7-12.2,9.3-19.2.9-3.9,1.3-7.9,1.2-12h3.7c0-.4,0,7.6-1.2,12.9h0Z"/>
    </g>
  </g>
  <g>
    <g>
      <g>
        <circle class="st1" cx="292.8" cy="98.9" r="17.1"/>
        <g>
          <path class="st4" d="M279.9,102.2c0,6.4,5.2,11.6,11.6,11.6s11.6-5.2,11.6-11.6-5.2-11.6-11.6-11.6-11.6,5.2-11.6,11.6Z"/>
          <path class="st2" d="M279.9,95.3c0,2,1.6,3.6,3.5,3.6s3.5-1.6,3.5-3.6-1.6-3.6-3.5-3.6-3.5,1.6-3.5,3.6Z"/>
        </g>
      </g>
      <path class="st4" d="M280.3,77.2c-.4,0-.9,0-1.3-.4-.8-.6-1-1.8-.4-2.6.9-1.2,5.8-7.2,14.1-7.7h.4c6.9-.3,11.8,3.3,13.5,4.8.8.7.9,1.9.2,2.7-.7.8-1.9.9-2.7.2-1.4-1.2-5.3-4.1-10.9-3.9h-.3c-6.7.4-10.6,5.2-11.3,6.2-.3.5-.9.7-1.4.8h0Z"/>
    </g>
    <g>
      <g>
        <circle class="st1" cx="381.8" cy="98.9" r="17.1"/>
        <g>
          <path class="st4" d="M368.9,102.2c0,6.4,5.2,11.6,11.6,11.6s11.6-5.2,11.6-11.6-5.2-11.6-11.6-11.6-11.6,5.2-11.6,11.6Z"/>
          <path class="st2" d="M368.9,95.3c0,2,1.6,3.6,3.5,3.6s3.5-1.6,3.5-3.6-1.6-3.6-3.5-3.6-3.5,1.6-3.5,3.6Z"/>
        </g>
      </g>
      <path class="st4" d="M369,75.2c-.4,0-.9-.2-1.2-.6-.7-.8-.7-1.9,0-2.7,1.1-1.1,7-6.3,15.5-5.4,6.9.8,11.1,5,12.6,6.8.7.8.6,2-.2,2.7-.8.7-2,.6-2.7-.2-1.2-1.4-4.6-4.9-10.1-5.5-6.8-.8-11.6,3.5-12.5,4.3-.4.4-1,.6-1.5.5h.1Z"/>
    </g>
  </g>
  <g>
    <g>
      <g>
        <path class="st4" d="M475.8,141.7c-.2,0-.4,0-.6-.1-20.7-7.4-42.2-12.1-63.9-14-16.8-1.5-33.8-1.2-50.6.6-1,.1-2-.6-2.1-1.7-.1-1,.6-2,1.7-2.1,17-1.9,34.3-2.1,51.3-.7,22.1,1.9,43.9,6.7,64.9,14.2,1,.4,1.5,1.4,1.1,2.4-.3.8-1,1.2-1.8,1.2h0v.2Z"/>
        <path class="st4" d="M471.1,160.7c-.3,0-.5,0-.8-.2-20.2-9.5-41.6-16.1-63.5-19.8-15-2.5-30.2-3.6-45.4-3.2-1.1,0-1.9-.8-1.9-1.8s.8-1.9,1.8-1.9c15.4-.4,31,.7,46.1,3.2,22.2,3.7,43.9,10.4,64.5,20.1.9.4,1.4,1.6.9,2.5-.3.7-1,1.1-1.7,1.1h0Z"/>
      </g>
      <g>
        <path class="st4" d="M199.5,141.7c.2,0,.4,0,.6-.1,20.7-7.4,42.2-12.1,63.9-14,16.8-1.5,33.8-1.2,50.6.6,1,.1,2-.6,2.1-1.7.1-1-.6-2-1.7-2.1-17-1.9-34.3-2.1-51.3-.7-22.1,1.9-43.9,6.7-64.9,14.2-1,.4-1.5,1.4-1.1,2.4.3.8,1,1.2,1.8,1.2h0v.2Z"/>
        <path class="st4" d="M204.2,160.7c.3,0,.5,0,.8-.2,20.2-9.5,41.6-16.1,63.5-19.8,15-2.5,30.2-3.6,45.4-3.2,1.1,0,1.9-.8,1.9-1.8s-.8-1.9-1.8-1.9c-15.4-.4-31,.7-46.1,3.2-22.2,3.7-43.9,10.4-64.5,20.1-.9.4-1.4,1.6-.9,2.5.3.7,1,1.1,1.7,1.1h0Z"/>
      </g>
    </g>
    <g>
      <path class="st4" d="M376,141.3c-1-.4-2.1,0-2.5.9-.9,2-3.7,6.9-9.7,9.6,0,0-7.7,3.3-14.1.4-7.6-3.4-13.1-15.1-9-29,.3-1-.3-2.1-1.3-2.3-1-.3-2,.3-2.3,1.3,0,.2,0,.4-.1.6,0-.2,0-.4-.1-.6-.3-1-1.3-1.6-2.3-1.3s-1.6,1.3-1.3,2.3c4.1,13.9-1.4,25.6-9,29-6.5,2.8-14-.4-14.1-.4-6-2.6-8.8-7.6-9.7-9.6-.4-.9-1.6-1.4-2.5-.9-1,.4-1.4,1.6-.9,2.5,1.1,2.4,4.4,8.3,11.7,11.4.2.1,4.5,1.9,9.6,1.9s5-.4,7.5-1.5c5.4-2.4,9.3-7.5,11.2-13.9,1.9,6.4,5.8,11.6,11.2,13.9,2.5,1.1,5.1,1.5,7.5,1.5,5.2,0,9.4-1.8,9.7-1.9,7.2-3.1,10.6-9,11.7-11.4.4-.9,0-2.1-.9-2.5h-.3Z"/>
      <path class="st4" d="M351.2,119.3c0,6.1-6.1,11-13.6,11s-13.6-4.9-13.6-11,6.1-11,13.6-11,13.6,4.9,13.6,11Z"/>
    </g>
  </g>
  <g>
    <path class="st3" d="M299,336.5c.4,2.5.2,5.1-.8,7.5-1.2,3.2-3.2,6-5,8.9-8.7,14.8-5.7,29.6-8,45.7-1.7,11.4-5.1,22.8-10.5,33-11,21-29.9,36.6-51.6,45.6-12.2,5.1-24.6,9.7-37.5,12.7-9.5,2.2-27.6,6.8-35.6-1.1-5.6-5.5-3.8-15-.6-22.2,9.8-22.3,27.8-39.3,44.4-56.5,22.7-23.4,37.1-49.9,52.3-78.4,2.7-5.1,5.7-10.5,10.5-13.7,8.8-5.8,23.3-4,31.6,2,5.1,3.6,9.7,9.9,10.7,16.5h.1Z"/>
    <g>
      <path class="st0" d="M164.1,495.1c-6,0-11.6-1.2-15.4-5-5.2-5.1-5.5-14-1-24.3,9-20.5,24.8-36.6,40.1-52.2,1.6-1.6,3.2-3.2,4.7-4.9,23.1-23.7,37.8-51.3,52-78,.5-.9,1.6-1.3,2.6-.8.9.5,1.3,1.6.8,2.5-14.4,26.9-29.2,54.7-52.6,78.8-1.6,1.6-3.2,3.2-4.8,4.9-15,15.4-30.5,31.2-39.3,51.1-1.8,4.2-5.5,14.5.2,20.1,7,6.9,23.7,3,32.7.9l1.1-.3c13.8-3.2,27.1-8.4,37.2-12.6,22.5-9.3,40.5-25.2,50.7-44.7,5.1-9.7,8.6-20.9,10.3-32.4.7-4.9.9-9.8,1.1-14.5.5-10.9.9-21.2,7.1-31.9.5-.8,1-1.6,1.5-2.4,1.3-2.1,2.5-4.1,3.4-6.2.8-2,1-4.2.6-6.5-.1-1,.6-2,1.6-2.1,1-.2,2,.6,2.1,1.6.4,3,.1,5.8-.9,8.5-1,2.5-2.4,4.7-3.7,6.9-.5.8-1,1.5-1.4,2.3-5.8,9.8-6.2,19.7-6.6,30.1-.2,4.8-.4,9.8-1.1,14.9-1.7,11.9-5.4,23.5-10.7,33.6-10.6,20.3-29.3,36.8-52.6,46.5-10.2,4.2-23.8,9.5-37.8,12.8l-1.1.3c-5.7,1.3-13.5,3.1-20.8,3.1h0Z"/>
      <g>
        <path class="st0" d="M176.8,451.8c-.9-2.6-3.4-4.1-5.8-3.2-6.7,2.6-2,13.8,4.1,9.3,2.1-1.6,2.4-4.1,1.7-6.2h0Z"/>
        <path class="st0" d="M178.3,464.8c-1.2,1.6-1.5,4-.4,5.8,1,1.8,3.4,2.7,5.3,1.9,1.3-.5,2.2-1.8,2.8-3.1.6-1.6.8-3.5-.2-5-.8-1.2-2.3-1.8-3.8-1.7-1.4.1-2.8.9-3.6,2.1h-.1Z"/>
        <path class="st0" d="M279.7,345.8c-1.2,1.6-1.5,4-.5,5.8s3.4,2.7,5.3,1.9c1.3-.5,2.2-1.8,2.8-3.1.6-1.6.8-3.5-.2-5-.8-1.2-2.3-1.8-3.8-1.7-1.4.1-2.8.9-3.6,2.1h0Z"/>
        <path class="st0" d="M197.4,422.6c-.4-1-1.4-1.7-2.5-1.9-1.1-.1-2.2.3-2.9,1.2-.7.9-.8,2.1-.4,3.1.3.8,1,1.5,1.8,1.7,1.2.3,2.4-.2,3.3-1.1.4-.4.8-.9.9-1.5.1-.5,0-1.1-.2-1.5h0Z"/>
        <path class="st0" d="M281.5,361.3c-.4-1-1.4-1.7-2.5-1.9-1.1-.1-2.2.3-2.9,1.2-.7.9-.8,2.1-.4,3.1.3.8,1,1.5,1.8,1.7,1.2.3,2.4-.2,3.3-1.1s.8-.9.9-1.5c.1-.5,0-1.1-.2-1.5h0Z"/>
        <path class="st0" d="M162.1,467.7c-3.2,0-5.9,2.4-6.1,5.5-.6,9,13.2,8.1,11.6-.9-.6-3.2-3-4.6-5.5-4.6h0Z"/>
      </g>
    </g>
  </g>
</svg>