<?xml version="1.0" encoding="UTF-8"?>
<svg id="Layer_1" xmlns="http://www.w3.org/2000/svg" version="1.1" viewBox="0 0 333.6 325">
  <!-- Generator: Adobe Illustrator 29.3.1, SVG Export Plug-In . SVG Version: 2.1.0 Build 151)  -->
  <defs>
    <style>
      .st0 {
        fill: #f08e57;
      }

      .st1 {
        fill: #e06a26;
      }

      .st2 {
        fill: #0c273d;
      }
    </style>
  </defs>
  <path class="st0" d="M320.9,97.8c9.2,3.7,14.3,13.3,12.2,23.1-1.3,5.8-4.6,10.9-8.4,15.4-8.4,9.9-19.6,17.3-29.8,25.3-11.4,9-22.9,18-34.3,27-4.6,3.6-9.4,7.4-12.2,12.7-10.4,19.7,11,45.3,19.7,61.8,6,11.5,12.1,24.4,12.1,37.6,0,14.2-9.2,26.3-24.4,24-6.8-1-13-4.5-18.6-8.6-18.9-13.7-32.4-33.5-51.8-46.6-6.5-5-14.4-8.2-22.6-8.3-7.3-.1-14.1,6.7-18.7,11.6-5.8,6.3-11.7,12.5-17.9,18.4-12.1,11.3-25.7,21.3-41.6,26.5-5.1,1.7-10.6,2.8-15.9,1.8-23.7-4.5-13.3-40-6.6-53.9,7.1-14.6,14.6-28.6,20.6-43.7,8.7-21.9-10.5-34.6-26.7-45-19.7-12.7-42.2-27.9-52.8-49.6-2.5-5.1-4.2-11-2.7-16.5,4-14.3,25.8-12.8,37.1-12.4,17,.6,33.9,3.5,50.7,5.6,7.9,1,16.2,1.3,23.6-1.7,20.4-8.3,15.5-36.1,17.2-53.6,1.1-11.2,3.5-22.6,9.6-32.1,6.4-9.9,18.7-18.8,31-16.2,16.7,3.5,24.1,26.5,28.4,40.8,4.3,14.1,7.1,28.7,12.8,42.3,7.1,17.1,26.1,15.7,41.6,14.3,20.8-1.8,41.9-6.2,62.6-1.8,2.1.4,4,1,5.7,1.7h0Z"/>
  <g>
    <path class="st1" d="M177.9,95.3c-.6-1.4-1.5-2.6-2.8-3.7-2.7-2.2-6.4-3.1-9.9-2.5-4,.7-8.7,3.4-10.5,7.2-2.4,4.9-1.3,10.8,2.7,14.4,6.5,5.9,17.1,4.9,20.2-3.9,1.4-3.8,1.9-8,.3-11.5h0Z"/>
    <path class="st1" d="M163.1,73.9c-3,0-6.1-1.9-7.9-4.2-6.4-8.1,2.5-21.9,12.6-18.3,4.4,1.5,7.2,6.3,7.1,10.8-.1,6.1-5.7,11.7-11.9,11.7h0Z"/>
    <path class="st1" d="M159.1,35.3c-5.7-2.9-3.5-11.4,1.7-13.3,5.9-2.2,10.6,5.3,7.8,10.3-1.8,3.1-6.3,4.7-9.6,3h0Z"/>
    <path class="st1" d="M241,154.1c-2.2-.9-4.2-2.4-5.7-4.6-2.9-4.2-3.1-9.9-.6-14.4,3-5.3,10.3-7.3,15.8-5.4,6.9,2.5,10.6,10.4,7.8,17.2-2.9,7.1-10.9,9.7-17.3,7.1h0Z"/>
    <path class="st1" d="M280.8,139.1c-9.9-.4-10.5-15-2.8-19.1,5.7-3,12.6,1.7,13.3,7.8.5,4.1-2,8.5-5.7,10.2-1.7.8-3.4,1.1-4.8,1.1h0Z"/>
    <path class="st1" d="M307.3,126.9c-9.1-2.5-3.8-18,4.8-15.4,4,1.2,6.4,6.4,5,10.3-1.6,3.6-5.9,5.8-9.8,5.1h0Z"/>
    <path class="st1" d="M201.9,233.4c-6.6-1.3-11-8.4-8.7-14.8.3-1.6.8-3.5,2.2-4.5,5.4-7.6,16.5-6.7,19.7,2.4,1.3,2.7.5,5.8,0,8.6-1.6,5.4-7.6,9.2-13.2,8.2h0Z"/>
    <path class="st1" d="M225.9,263.5c-13.6-.4-12.9-19.4-.4-20.7,14.8-.4,13.9,20.1.4,20.7Z"/>
    <path class="st1" d="M240.4,287.6c-5.3-.3-9.3-6.2-6.2-11,1.7-4.5,6.5-7,11.1-5.2,3,1.2,5.1,4.3,4.3,7.6-.5,4.4-4.3,9.5-9.2,8.5Z"/>
    <path class="st1" d="M253,308.3c-1.7-.8-2.9-2.4-2.8-4.8.2-4.5,3.4-9.3,8.4-8.3,3.7.8,5.4,5.2,4.6,8.6-.8,4.4-6.6,6.1-10.2,4.4h0Z"/>
    <path class="st1" d="M125.8,238.4c-16.4.8-14.3-26.3,2.3-26.2,15.8.2,11.6,25.5-2.3,26.2Z"/>
    <path class="st1" d="M104.8,264.2c-9-1.3-11.1-11.9-5.4-18.2,1.6-2.4,4.8-4.4,7.8-3.8,3.5,1.3,6.8,4,8.5,7.3,1,3.9.9,8.8-2.1,11.8-2.6,1.6-5.7,3.1-8.8,2.9h0Z"/>
    <path class="st1" d="M86.6,284.2c-4.1-1.5-4.5-5.8-3.5-9.5.6-4.9,6.2-8.1,10.6-5.5,4.2,1.7,4.3,5.2,3,9-.8,4.6-5.6,7.7-10.1,6h0Z"/>
    <path class="st1" d="M75.2,305.1c-8.7-.2-7.8-11.3-1.5-14.4,3.6-1.4,8.5,1.5,8.9,5.4.3,4.3-2.6,9.2-7.4,9h0Z"/>
    <path class="st1" d="M79.8,155c-11.7-5.3-9.4-22.7,2.5-26.2,10.5-3.1,20.5,6.7,16.3,17.1-2.9,7.1-11.4,12.4-18.8,9h0Z"/>
    <path class="st1" d="M45.5,139.4c-6.5-5.7-3.9-19.2,5.5-19.8,9.8-.7,14.6,13.4,7,19.3-3.7,2.5-8.9,3.8-12.6.6h0Z"/>
    <path class="st1" d="M22.4,128.5c-10.3-1.7-8.6-16.7,1.6-16.6,4.3,0,7.8,4,7.7,8.2-.4,4.6-4.7,8.6-9.4,8.4h0Z"/>
  </g>
  <g>
    <path class="st2" d="M145.3,162.1h-.2c-1.1,0-1.9-1.1-1.8-2.1.3-3.8-.9-7.6-3.4-10.5-2.4-2.7-5.6-4.5-9-4.7-3.6-.3-7.3,1.1-10.1,3.8-2.9,2.8-4.5,6.8-4.4,10.8,0,1.1-.8,2-1.9,2.1-1.2,0-2-.8-2.1-1.9-.2-5.2,1.9-10.2,5.6-13.8,3.6-3.5,8.4-5.3,13.2-4.9,4.4.3,8.8,2.6,11.8,6.1,3.2,3.8,4.8,8.5,4.4,13.4,0,1.1-1,1.8-2,1.8h0Z"/>
    <path class="st2" d="M188.3,162.1c-1,0-1.9-.8-2-1.8-.4-4.9,1.1-9.7,4.4-13.4,3-3.6,7.3-5.8,11.8-6.1,4.8-.4,9.6,1.4,13.2,4.9,3.8,3.6,5.8,8.6,5.6,13.8,0,1.1-1,1.9-2.1,1.9-1.1,0-2-1-1.9-2.1.1-4.1-1.5-8-4.4-10.8-2.8-2.7-6.5-4.1-10.1-3.8-3.4.2-6.7,2-9,4.7-2.5,2.9-3.7,6.7-3.4,10.5,0,1.1-.7,2.1-1.8,2.1h-.2Z"/>
    <path class="st2" d="M166.8,195.3c-4,0-7.9-1.7-10.8-4.7-3-3.1-4.5-7.4-4.2-11.8,0-1.1,1.1-1.9,2.1-1.9,1.1,0,1.9,1,1.9,2.1-.2,3.2.9,6.4,3.1,8.7,2.2,2.3,5.1,3.5,8.1,3.5,2.9,0,5.8-1.4,7.8-3.8,2.1-2.4,3.1-5.6,2.8-8.7-.1-1.1.7-2.1,1.8-2.2,1.1-.1,2.1.7,2.2,1.8.4,4.2-.9,8.5-3.8,11.7-2.8,3.1-6.7,5-10.8,5.1h-.3Z"/>
  </g>
</svg>